<svg width="412" height="917" viewBox="0 0 412 917" fill="none" xmlns="http://www.w3.org/2000/svg">
<g clip-path="url(#clip0_1797_136)">
<rect width="412" height="917" fill="#F1EDE6"/>
<path d="M148.32 447V419H154.8V441.72H168.84V447H148.32ZM182.183 447.32C179.889 447.32 177.849 446.84 176.063 445.88C174.303 444.92 172.903 443.613 171.863 441.96C170.849 440.28 170.343 438.373 170.343 436.24C170.343 434.08 170.849 432.173 171.863 430.52C172.903 428.84 174.303 427.533 176.063 426.6C177.849 425.64 179.889 425.16 182.183 425.16C184.449 425.16 186.476 425.64 188.263 426.6C190.049 427.533 191.449 428.827 192.463 430.48C193.476 432.133 193.983 434.053 193.983 436.24C193.983 438.373 193.476 440.28 192.463 441.96C191.449 443.613 190.049 444.92 188.263 445.88C186.476 446.84 184.449 447.32 182.183 447.32ZM182.183 442.2C183.223 442.2 184.156 441.96 184.983 441.48C185.809 441 186.463 440.32 186.943 439.44C187.423 438.533 187.663 437.467 187.663 436.24C187.663 434.987 187.423 433.92 186.943 433.04C186.463 432.16 185.809 431.48 184.983 431C184.156 430.52 183.223 430.28 182.183 430.28C181.143 430.28 180.209 430.52 179.383 431C178.556 431.48 177.889 432.16 177.383 433.04C176.903 433.92 176.663 434.987 176.663 436.24C176.663 437.467 176.903 438.533 177.383 439.44C177.889 440.32 178.556 441 179.383 441.48C180.209 441.96 181.143 442.2 182.183 442.2ZM208.273 455.08C206.247 455.08 204.287 454.827 202.393 454.32C200.527 453.84 198.967 453.107 197.713 452.12L200.193 447.64C201.1 448.387 202.247 448.973 203.633 449.4C205.047 449.853 206.433 450.08 207.793 450.08C210.007 450.08 211.607 449.587 212.593 448.6C213.607 447.613 214.113 446.147 214.113 444.2V440.96L214.513 435.56L214.433 430.12V425.48H220.353V443.4C220.353 447.4 219.313 450.347 217.233 452.24C215.153 454.133 212.167 455.08 208.273 455.08ZM207.313 445.96C205.313 445.96 203.5 445.533 201.873 444.68C200.273 443.8 198.98 442.587 197.993 441.04C197.033 439.467 196.553 437.64 196.553 435.56C196.553 433.453 197.033 431.627 197.993 430.08C198.98 428.507 200.273 427.293 201.873 426.44C203.5 425.587 205.313 425.16 207.313 425.16C209.127 425.16 210.727 425.533 212.113 426.28C213.5 427 214.58 428.133 215.353 429.68C216.127 431.2 216.513 433.16 216.513 435.56C216.513 437.933 216.127 439.893 215.353 441.44C214.58 442.96 213.5 444.093 212.113 444.84C210.727 445.587 209.127 445.96 207.313 445.96ZM208.553 440.84C209.647 440.84 210.62 440.627 211.473 440.2C212.327 439.747 212.993 439.12 213.473 438.32C213.953 437.52 214.193 436.6 214.193 435.56C214.193 434.493 213.953 433.573 213.473 432.8C212.993 432 212.327 431.387 211.473 430.96C210.62 430.507 209.647 430.28 208.553 430.28C207.46 430.28 206.487 430.507 205.633 430.96C204.78 431.387 204.1 432 203.593 432.8C203.113 433.573 202.873 434.493 202.873 435.56C202.873 436.6 203.113 437.52 203.593 438.32C204.1 439.12 204.78 439.747 205.633 440.2C206.487 440.627 207.46 440.84 208.553 440.84ZM226.161 447V425.48H232.401V447H226.161ZM229.281 422.48C228.135 422.48 227.201 422.147 226.481 421.48C225.761 420.813 225.401 419.987 225.401 419C225.401 418.013 225.761 417.187 226.481 416.52C227.201 415.853 228.135 415.52 229.281 415.52C230.428 415.52 231.361 415.84 232.081 416.48C232.801 417.093 233.161 417.893 233.161 418.88C233.161 419.92 232.801 420.787 232.081 421.48C231.388 422.147 230.455 422.48 229.281 422.48ZM251.273 425.16C252.979 425.16 254.499 425.507 255.833 426.2C257.193 426.867 258.259 427.907 259.033 429.32C259.806 430.707 260.193 432.493 260.193 434.68V447H253.953V435.64C253.953 433.907 253.566 432.627 252.793 431.8C252.046 430.973 250.979 430.56 249.593 430.56C248.606 430.56 247.713 430.773 246.913 431.2C246.139 431.6 245.526 432.227 245.073 433.08C244.646 433.933 244.433 435.027 244.433 436.36V447H238.193V425.48H244.153V431.44L243.033 429.64C243.806 428.2 244.913 427.093 246.353 426.32C247.793 425.547 249.433 425.16 251.273 425.16Z" fill="#0C3C2B"/>
<rect x="5" y="522" width="155" height="45" rx="22.5" fill="#0C3C2B"/>
<path d="M38.5 532.5V556.5H14.5V532.5H38.5Z" fill="white" fill-opacity="0.01"/>
<path d="M36.8799 540.546C37.0003 541.565 37 542.847 37 544.437V544.563C37 546.153 37.0003 547.435 36.8799 548.454C36.7552 549.509 36.4896 550.411 35.8652 551.172C35.6575 551.425 35.425 551.657 35.1719 551.865C34.411 552.49 33.5086 552.755 32.4541 552.88C31.4351 553 30.1533 553 28.5635 553H24.4365C22.8467 553 21.5649 553 20.5459 552.88C19.4914 552.755 18.589 552.49 17.8281 551.865C17.575 551.657 17.3425 551.425 17.1348 551.172C16.5104 550.411 16.2448 549.509 16.1201 548.454C15.9997 547.435 16 546.153 16 544.563V544.437C16 542.847 15.9997 541.565 16.1201 540.546C16.1342 540.426 16.1499 540.309 16.168 540.193L20.7383 544.001C21.9429 545.005 22.9162 545.818 23.7734 546.369C24.654 546.935 25.512 547.294 26.5 547.294C27.488 547.294 28.346 546.935 29.2266 546.369C30.0838 545.818 31.0571 545.005 32.2617 544.001L36.8311 540.193C36.8491 540.309 36.8658 540.426 36.8799 540.546ZM28.5635 536C30.1533 536 31.4351 536 32.4541 536.12C33.5086 536.245 34.411 536.51 35.1719 537.135C35.425 537.343 35.6575 537.575 35.8652 537.828C35.9586 537.942 36.043 538.06 36.1211 538.18L30.9814 542.465C29.7377 543.501 28.8736 544.219 28.1445 544.688C27.4389 545.141 26.96 545.294 26.5 545.294C26.04 545.294 25.5611 545.141 24.8555 544.688C24.1264 544.219 23.2623 543.501 22.0186 542.465L16.8779 538.18C16.9561 538.059 17.0413 537.942 17.1348 537.828C17.3425 537.575 17.575 537.343 17.8281 537.135C18.589 536.51 19.4914 536.245 20.5459 536.12C21.5649 536 22.8467 536 24.4365 536H28.5635Z" fill="#F7F9FC"/>
<path d="M58.88 537.38C59.0133 537.167 59.2067 537.02 59.46 536.94C59.7133 536.86 60.0267 536.82 60.4 536.82C60.7867 536.82 61.0933 536.853 61.32 536.92C61.5467 536.987 61.72 537.067 61.84 537.16C61.96 537.253 62.0467 537.393 62.1 537.58C62.18 537.807 62.22 538.153 62.22 538.62V544.66C62.22 546.42 61.6733 548.02 60.58 549.46C60.0467 550.14 59.36 550.693 58.52 551.12C57.68 551.533 56.7467 551.74 55.72 551.74C54.7067 551.74 53.78 551.527 52.94 551.1C52.1133 550.673 51.44 550.113 50.92 549.42C49.84 548.007 49.3 546.407 49.3 544.62V538.6C49.3 538.28 49.3067 538.047 49.32 537.9C49.3467 537.74 49.4133 537.56 49.52 537.36C49.6267 537.16 49.8067 537.02 50.06 536.94C50.3133 536.86 50.6533 536.82 51.08 536.82C51.5067 536.82 51.8467 536.86 52.1 536.94C52.3533 537.02 52.5267 537.16 52.62 537.36C52.78 537.667 52.86 538.087 52.86 538.62V544.62C52.86 545.433 53.06 546.207 53.46 546.94C53.66 547.313 53.96 547.613 54.36 547.84C54.76 548.067 55.2333 548.18 55.78 548.18C56.7533 548.18 57.48 547.82 57.96 547.1C58.44 546.38 58.68 545.547 58.68 544.6V538.48C58.68 537.96 58.7467 537.593 58.88 537.38ZM63.5011 550.56C63.2478 550.4 63.1211 550.147 63.1211 549.8C63.1211 549.453 63.3744 548.927 63.8811 548.22C64.0278 547.993 64.2611 547.88 64.5811 547.88C64.9144 547.88 65.3611 548.047 65.9211 548.38C66.4811 548.7 66.9878 548.86 67.4411 548.86C68.2544 548.86 68.6611 548.7 68.6611 548.38C68.6611 548.127 68.2144 547.94 67.3211 547.82C66.4811 547.7 65.6478 547.387 64.8211 546.88C64.4344 546.64 64.1144 546.267 63.8611 545.76C63.6078 545.24 63.4811 544.627 63.4811 543.92C63.4811 541.813 64.9278 540.76 67.8211 540.76C68.7678 540.76 69.7411 540.987 70.7411 541.44C71.2078 541.653 71.4411 541.92 71.4411 542.24C71.4411 542.56 71.2944 542.953 71.0011 543.42C70.7078 543.887 70.4078 544.12 70.1011 544.12C69.9411 544.12 69.6411 544.02 69.2011 543.82C68.7744 543.62 68.3078 543.52 67.8011 543.52C67.0144 543.52 66.6211 543.667 66.6211 543.96C66.6211 544.36 67.0744 544.62 67.9811 544.74C68.8611 544.833 69.7144 545.087 70.5411 545.5C70.9278 545.687 71.2478 546.013 71.5011 546.48C71.7678 546.933 71.9011 547.507 71.9011 548.2C71.9011 548.893 71.7678 549.487 71.5011 549.98C71.2478 550.46 70.8878 550.82 70.4211 551.06C69.5678 551.473 68.4944 551.68 67.2011 551.68C65.9211 551.68 64.6878 551.307 63.5011 550.56ZM83.3663 544.98C83.3663 545.793 83.1596 546.4 82.7463 546.8C82.3463 547.187 81.8996 547.38 81.4063 547.38H76.6663C76.6663 547.753 76.8863 548.067 77.3263 548.32C77.7663 548.573 78.2063 548.7 78.6463 548.7C79.4196 548.7 80.0263 548.62 80.4663 548.46L80.6863 548.38C81.0063 548.233 81.2729 548.16 81.4863 548.16C81.9129 548.16 82.2796 548.46 82.5863 549.06C82.7596 549.42 82.8463 549.727 82.8463 549.98C82.8463 551.167 81.4263 551.76 78.5863 551.76C77.5996 551.76 76.7196 551.593 75.9463 551.26C75.1863 550.913 74.5929 550.46 74.1663 549.9C73.3263 548.82 72.9063 547.613 72.9063 546.28C72.9063 544.6 73.4463 543.26 74.5263 542.26C75.6196 541.247 76.9796 540.74 78.6063 540.74C80.4596 540.74 81.8196 541.393 82.6862 542.7C83.1396 543.393 83.3663 544.153 83.3663 544.98ZM79.1463 545.56C79.6529 545.56 79.9063 545.347 79.9063 544.92C79.9063 544.613 79.7863 544.367 79.5463 544.18C79.3196 543.993 78.9863 543.9 78.5463 543.9C78.1196 543.9 77.6929 544.08 77.2663 544.44C76.8396 544.787 76.6263 545.16 76.6263 545.56H79.1463ZM91.8311 541.08C92.0844 541.16 92.2911 541.3 92.4511 541.5C92.6244 541.687 92.7111 541.993 92.7111 542.42C92.7111 542.847 92.5844 543.313 92.3311 543.82C92.0778 544.327 91.7111 544.58 91.2311 544.58C90.9911 544.58 90.7578 544.527 90.5311 544.42C90.3178 544.313 90.0311 544.26 89.6711 544.26C89.3111 544.26 88.9711 544.387 88.6511 544.64C88.3444 544.893 88.1911 545.2 88.1911 545.56V549.76C88.1911 550.067 88.1778 550.3 88.1511 550.46C88.1378 550.607 88.0778 550.78 87.9711 550.98C87.7711 551.327 87.2511 551.5 86.4111 551.5C85.7711 551.5 85.3111 551.387 85.0311 551.16C84.8178 550.973 84.6978 550.687 84.6711 550.3C84.6711 550.167 84.6711 549.973 84.6711 549.72V542.7C84.6711 542.393 84.6778 542.167 84.6911 542.02C84.7178 541.86 84.7778 541.687 84.8711 541.5C85.0578 541.14 85.5778 540.96 86.4311 540.96C87.2311 540.96 87.7311 541.113 87.9311 541.42C88.0778 541.633 88.1511 541.853 88.1511 542.08C88.2178 541.987 88.3111 541.873 88.4311 541.74C88.5644 541.607 88.8378 541.427 89.2511 541.2C89.6644 540.973 90.0244 540.86 90.3311 540.86C90.6511 540.86 90.9178 540.88 91.1311 540.92C91.3444 540.947 91.5778 541 91.8311 541.08ZM99.6717 540.96C101.005 540.96 102.112 541.473 102.992 542.5C103.885 543.513 104.332 544.753 104.332 546.22V549.74C104.332 550.047 104.318 550.28 104.292 550.44C104.278 550.587 104.225 550.753 104.132 550.94C103.945 551.3 103.425 551.48 102.572 551.48C101.625 551.48 101.078 551.233 100.932 550.74C100.852 550.513 100.812 550.173 100.812 549.72V546.2C100.812 545.653 100.652 545.227 100.332 544.92C100.025 544.613 99.6051 544.46 99.0717 544.46C98.5517 544.46 98.1251 544.62 97.7917 544.94C97.4717 545.26 97.3117 545.68 97.3117 546.2V549.74C97.3117 550.047 97.2984 550.28 97.2717 550.44C97.2584 550.587 97.1984 550.753 97.0917 550.94C96.9184 551.3 96.4051 551.48 95.5517 551.48C94.7117 551.48 94.1984 551.3 94.0117 550.94C93.9184 550.74 93.8584 550.567 93.8317 550.42C93.8184 550.26 93.8117 550.027 93.8117 549.72V542.64C93.8117 542.347 93.8184 542.127 93.8317 541.98C93.8584 541.82 93.9251 541.647 94.0317 541.46C94.2184 541.127 94.7317 540.96 95.5717 540.96C96.3851 540.96 96.8851 541.113 97.0717 541.42C97.2051 541.647 97.2717 541.92 97.2717 542.24C97.3251 542.147 97.4451 542.013 97.6317 541.84C97.8184 541.667 97.9984 541.527 98.1717 541.42C98.6251 541.113 99.1251 540.96 99.6717 540.96ZM112.781 542.08C112.861 541.333 113.387 540.96 114.361 540.96C114.881 540.96 115.267 541 115.521 541.08C115.774 541.16 115.947 541.3 116.041 541.5C116.147 541.7 116.207 541.88 116.221 542.04C116.247 542.187 116.261 542.413 116.261 542.72V549.72C116.261 550.027 116.247 550.26 116.221 550.42C116.207 550.567 116.154 550.74 116.061 550.94C115.874 551.287 115.414 551.46 114.681 551.46C113.961 551.46 113.474 551.373 113.221 551.2C112.981 551.013 112.841 550.747 112.801 550.4C112.307 551.107 111.481 551.46 110.321 551.46C109.174 551.46 108.107 550.933 107.121 549.88C106.134 548.827 105.641 547.607 105.641 546.22C105.641 544.82 106.134 543.6 107.121 542.56C108.121 541.507 109.214 540.98 110.401 540.98C110.854 540.98 111.267 541.06 111.641 541.22C112.014 541.38 112.274 541.533 112.421 541.68C112.567 541.813 112.687 541.947 112.781 542.08ZM109.141 546.24C109.141 546.68 109.314 547.08 109.661 547.44C110.007 547.787 110.427 547.96 110.921 547.96C111.414 547.96 111.821 547.78 112.141 547.42C112.474 547.06 112.641 546.667 112.641 546.24C112.641 545.8 112.481 545.393 112.161 545.02C111.854 544.647 111.434 544.46 110.901 544.46C110.381 544.46 109.954 544.647 109.621 545.02C109.301 545.393 109.141 545.8 109.141 546.24ZM121.295 542.36C121.921 541.413 122.675 540.94 123.555 540.94C124.915 540.94 125.928 541.52 126.595 542.68C126.741 542.48 126.915 542.273 127.115 542.06C127.328 541.833 127.661 541.593 128.115 541.34C128.568 541.073 129.035 540.94 129.515 540.94C130.581 540.94 131.475 541.353 132.195 542.18C132.915 542.993 133.275 544.347 133.275 546.24V549.74C133.275 550.047 133.261 550.28 133.235 550.44C133.221 550.587 133.161 550.76 133.055 550.96C132.881 551.32 132.368 551.5 131.515 551.5C130.675 551.5 130.161 551.313 129.975 550.94C129.881 550.74 129.821 550.567 129.795 550.42C129.781 550.26 129.775 550.027 129.775 549.72V546.22C129.775 545.06 129.361 544.48 128.535 544.48C128.068 544.48 127.748 544.633 127.575 544.94C127.415 545.247 127.335 545.68 127.335 546.24V549.74C127.335 550.06 127.321 550.293 127.295 550.44C127.281 550.587 127.221 550.76 127.115 550.96C126.928 551.32 126.408 551.5 125.555 551.5C124.715 551.5 124.201 551.313 124.015 550.94C123.921 550.74 123.861 550.567 123.835 550.42C123.821 550.26 123.815 550.027 123.815 549.72V546.22C123.815 545.06 123.401 544.48 122.575 544.48C121.775 544.48 121.375 545.06 121.375 546.22V549.76C121.375 550.067 121.361 550.3 121.335 550.46C121.321 550.607 121.261 550.78 121.155 550.98C120.955 551.327 120.435 551.5 119.595 551.5C118.755 551.5 118.241 551.32 118.055 550.96C117.961 550.76 117.901 550.587 117.875 550.44C117.861 550.293 117.855 550.06 117.855 549.74V542.7C117.855 542.393 117.861 542.167 117.875 542.02C117.901 541.86 117.968 541.687 118.075 541.5C118.275 541.14 118.748 540.96 119.495 540.96C120.241 540.96 120.728 541.08 120.955 541.32C121.181 541.56 121.295 541.907 121.295 542.36ZM145.026 544.98C145.026 545.793 144.82 546.4 144.406 546.8C144.006 547.187 143.56 547.38 143.066 547.38H138.326C138.326 547.753 138.546 548.067 138.986 548.32C139.426 548.573 139.866 548.7 140.306 548.7C141.08 548.7 141.686 548.62 142.126 548.46L142.346 548.38C142.666 548.233 142.933 548.16 143.146 548.16C143.573 548.16 143.94 548.46 144.246 549.06C144.42 549.42 144.506 549.727 144.506 549.98C144.506 551.167 143.086 551.76 140.246 551.76C139.26 551.76 138.38 551.593 137.606 551.26C136.846 550.913 136.253 550.46 135.826 549.9C134.986 548.82 134.566 547.613 134.566 546.28C134.566 544.6 135.106 543.26 136.186 542.26C137.28 541.247 138.64 540.74 140.266 540.74C142.12 540.74 143.48 541.393 144.346 542.7C144.8 543.393 145.026 544.153 145.026 544.98ZM140.806 545.56C141.313 545.56 141.566 545.347 141.566 544.92C141.566 544.613 141.446 544.367 141.206 544.18C140.98 543.993 140.646 543.9 140.206 543.9C139.78 543.9 139.353 544.08 138.926 544.44C138.5 544.787 138.286 545.16 138.286 545.56H140.806ZM147.971 541.4C148.665 541.4 149.138 541.533 149.391 541.8C149.658 542.067 149.791 542.567 149.791 543.3C149.778 543.62 149.758 543.86 149.731 544.02C149.718 544.167 149.651 544.347 149.531 544.56C149.331 544.947 148.825 545.14 148.011 545.14C147.211 545.14 146.678 545.013 146.411 544.76C146.158 544.493 146.031 543.987 146.031 543.24C146.031 542.467 146.171 541.973 146.451 541.76C146.785 541.52 147.291 541.4 147.971 541.4ZM147.971 547.78C148.665 547.78 149.138 547.913 149.391 548.18C149.658 548.433 149.791 548.933 149.791 549.68C149.778 550 149.758 550.24 149.731 550.4C149.718 550.547 149.651 550.727 149.531 550.94C149.331 551.327 148.825 551.52 148.011 551.52C147.211 551.52 146.678 551.393 146.411 551.14C146.158 550.873 146.031 550.367 146.031 549.62C146.031 548.847 146.171 548.353 146.451 548.14C146.785 547.9 147.291 547.78 147.971 547.78Z" fill="white"/>
<g filter="url(#filter0_d_1797_136)">
<rect x="197" y="522" width="206" height="45" rx="22.5" fill="#0C3C2B"/>
</g>
<g filter="url(#filter1_d_1797_136)">
<rect x="198" y="610" width="206" height="45" rx="22.5" fill="#0C3C2B"/>
</g>
<rect x="7" y="610" width="155" height="45" rx="22.5" fill="#0C3C2B"/>
<path d="M42.5 620.5V644.5H18.5V620.5H42.5Z" fill="white" fill-opacity="0.01"/>
<path d="M29.7179 622C30.5402 622.001 30.8125 622.013 31.0177 622.068C31.7078 622.253 32.2468 622.792 32.4317 623.482C32.4913 623.705 32.5001 624.006 32.5001 625V625.667C32.5001 626.04 32.4995 626.376 32.5206 626.654C32.5425 626.943 32.592 627.251 32.7345 627.557C32.9828 628.089 33.4109 628.517 33.9434 628.766C34.249 628.908 34.5569 628.958 34.8458 628.979C35.1242 629.001 35.4599 629 35.8331 629H37.0001C37.4958 629 37.6473 629.003 37.7608 629.018C38.6583 629.136 39.3643 629.842 39.4825 630.739C39.49 630.796 39.4946 630.862 39.4972 630.977L39.5001 631.5V632.07C39.5001 633.424 39.4997 634.541 39.3809 635.425C39.2562 636.353 38.9843 637.172 38.3282 637.828C37.6721 638.484 36.8527 638.756 35.9249 638.881C35.7808 638.9 35.6361 638.916 35.4913 638.93C35.4798 639.352 35.4506 639.709 35.3634 640.035C34.9935 641.416 33.9156 642.493 32.5352 642.863C31.9945 643.008 31.3656 643 30.5001 643H28.5001C27.1143 643 25.9743 643.002 25.0753 642.881C24.1475 642.756 23.328 642.484 22.672 641.828C22.0159 641.172 21.744 640.353 21.6192 639.425C21.4984 638.526 21.5001 637.386 21.5001 636V631.5C21.5001 630.634 21.4919 630.006 21.6368 629.465C22.0067 628.085 23.0846 627.007 24.4649 626.637C24.7706 626.555 25.1045 626.523 25.4932 626.51C25.5011 625.727 25.5686 624.936 25.9044 624.247C26.2957 623.444 26.9446 622.796 27.7472 622.404C28.3504 622.11 29.0324 622.023 29.7179 622ZM25.5001 628.51C25.2426 628.519 25.1013 628.537 24.9825 628.568C24.2924 628.753 23.7534 629.292 23.5684 629.982C23.5089 630.205 23.5001 630.506 23.5001 631.5V636C23.5001 637.442 23.5019 638.423 23.6007 639.158C23.6956 639.864 23.8635 640.191 24.086 640.414C24.3086 640.637 24.6359 640.804 25.3419 640.899C26.0766 640.998 27.0579 641 28.5001 641H30.5001C31.4943 641 31.7954 640.991 32.0177 640.932C32.7078 640.747 33.2468 640.208 33.4317 639.518C33.4635 639.399 33.4801 639.258 33.4893 639.002C33.1588 639.002 32.8287 639 32.5001 639C31.3619 639 30.2062 639.033 29.0753 638.881C28.1475 638.756 27.328 638.484 26.672 637.828C26.0159 637.172 25.744 636.353 25.6192 635.425C25.5004 634.541 25.5 633.424 25.5001 632.07V628.51ZM34.089 622.236C34.7831 622.436 35.4384 622.758 36.0206 623.193C36.3797 623.462 36.7009 623.787 37.2071 624.293C37.7133 624.799 38.0374 625.12 38.3057 625.479C38.7408 626.062 39.0638 626.716 39.2638 627.41C38.8808 627.222 38.4634 627.092 38.0225 627.034C37.7463 626.998 37.4327 627 37.0001 627H35.8331C35.4297 627 35.1825 626.999 34.9972 626.985C34.9108 626.979 34.8575 626.971 34.8253 626.964C34.8106 626.961 34.8012 626.958 34.796 626.956C34.7922 626.955 34.7899 626.953 34.7891 626.953C34.6827 626.903 34.5966 626.817 34.547 626.711C34.5466 626.71 34.5453 626.708 34.544 626.704C34.5423 626.699 34.5394 626.69 34.5362 626.675C34.5292 626.643 34.5213 626.589 34.5147 626.503C34.5007 626.318 34.5001 626.07 34.5001 625.667V625C34.5001 624.134 34.5082 623.506 34.3634 622.965C34.2953 622.711 34.2024 622.467 34.089 622.236Z" fill="#F7F9FC"/>
<path d="M64.12 629.3C64.4667 630.007 64.64 630.793 64.64 631.66C64.64 632.527 64.4667 633.313 64.12 634.02C63.7733 634.713 63.3267 635.267 62.78 635.68C61.6733 636.533 60.5267 636.96 59.34 636.96H56.84V639.22C56.84 639.527 56.8267 639.76 56.8 639.92C56.7867 640.067 56.7267 640.24 56.62 640.44C56.4333 640.8 55.9133 640.98 55.06 640.98C54.1267 640.98 53.58 640.733 53.42 640.24C53.34 640.013 53.3 639.667 53.3 639.2V628.1C53.3 627.793 53.3067 627.567 53.32 627.42C53.3467 627.26 53.4133 627.08 53.52 626.88C53.7067 626.52 54.2267 626.34 55.08 626.34H59.36C60.5333 626.34 61.6733 626.767 62.78 627.62C63.3267 628.033 63.7733 628.593 64.12 629.3ZM59.36 633.42C59.76 633.42 60.1533 633.273 60.54 632.98C60.9267 632.687 61.12 632.247 61.12 631.66C61.12 631.073 60.9267 630.633 60.54 630.34C60.1533 630.033 59.7533 629.88 59.34 629.88H56.84V633.42H59.36ZM72.7767 631.58C72.8567 630.833 73.3834 630.46 74.3567 630.46C74.8767 630.46 75.2634 630.5 75.5167 630.58C75.7701 630.66 75.9434 630.8 76.0367 631C76.1434 631.2 76.2034 631.38 76.2167 631.54C76.2434 631.687 76.2567 631.913 76.2567 632.22V639.22C76.2567 639.527 76.2434 639.76 76.2167 639.92C76.2034 640.067 76.1501 640.24 76.0567 640.44C75.8701 640.787 75.4101 640.96 74.6767 640.96C73.9567 640.96 73.4701 640.873 73.2167 640.7C72.9767 640.513 72.8367 640.247 72.7967 639.9C72.3034 640.607 71.4767 640.96 70.3167 640.96C69.1701 640.96 68.1034 640.433 67.1167 639.38C66.1301 638.327 65.6367 637.107 65.6367 635.72C65.6367 634.32 66.1301 633.1 67.1167 632.06C68.1167 631.007 69.2101 630.48 70.3967 630.48C70.8501 630.48 71.2634 630.56 71.6367 630.72C72.0101 630.88 72.2701 631.033 72.4167 631.18C72.5634 631.313 72.6834 631.447 72.7767 631.58ZM69.1367 635.74C69.1367 636.18 69.3101 636.58 69.6567 636.94C70.0034 637.287 70.4234 637.46 70.9167 637.46C71.4101 637.46 71.8167 637.28 72.1367 636.92C72.4701 636.56 72.6367 636.167 72.6367 635.74C72.6367 635.3 72.4767 634.893 72.1567 634.52C71.8501 634.147 71.4301 633.96 70.8967 633.96C70.3767 633.96 69.9501 634.147 69.6167 634.52C69.2967 634.893 69.1367 635.3 69.1367 635.74ZM77.9308 640.06C77.6774 639.9 77.5508 639.647 77.5508 639.3C77.5508 638.953 77.8041 638.427 78.3108 637.72C78.4574 637.493 78.6908 637.38 79.0108 637.38C79.3441 637.38 79.7908 637.547 80.3508 637.88C80.9108 638.2 81.4174 638.36 81.8708 638.36C82.6841 638.36 83.0908 638.2 83.0908 637.88C83.0908 637.627 82.6441 637.44 81.7508 637.32C80.9108 637.2 80.0774 636.887 79.2508 636.38C78.8641 636.14 78.5441 635.767 78.2908 635.26C78.0374 634.74 77.9108 634.127 77.9108 633.42C77.9108 631.313 79.3574 630.26 82.2508 630.26C83.1974 630.26 84.1708 630.487 85.1708 630.94C85.6374 631.153 85.8708 631.42 85.8708 631.74C85.8708 632.06 85.7241 632.453 85.4308 632.92C85.1374 633.387 84.8374 633.62 84.5308 633.62C84.3708 633.62 84.0708 633.52 83.6308 633.32C83.2041 633.12 82.7374 633.02 82.2308 633.02C81.4441 633.02 81.0508 633.167 81.0508 633.46C81.0508 633.86 81.5041 634.12 82.4108 634.24C83.2908 634.333 84.1441 634.587 84.9708 635C85.3574 635.187 85.6774 635.513 85.9308 635.98C86.1974 636.433 86.3308 637.007 86.3308 637.7C86.3308 638.393 86.1974 638.987 85.9308 639.48C85.6774 639.96 85.3174 640.32 84.8508 640.56C83.9974 640.973 82.9241 641.18 81.6308 641.18C80.3508 641.18 79.1174 640.807 77.9308 640.06ZM87.7159 640.06C87.4626 639.9 87.3359 639.647 87.3359 639.3C87.3359 638.953 87.5893 638.427 88.0959 637.72C88.2426 637.493 88.4759 637.38 88.7959 637.38C89.1293 637.38 89.5759 637.547 90.1359 637.88C90.6959 638.2 91.2026 638.36 91.6559 638.36C92.4693 638.36 92.8759 638.2 92.8759 637.88C92.8759 637.627 92.4293 637.44 91.5359 637.32C90.6959 637.2 89.8626 636.887 89.0359 636.38C88.6493 636.14 88.3293 635.767 88.0759 635.26C87.8226 634.74 87.6959 634.127 87.6959 633.42C87.6959 631.313 89.1426 630.26 92.0359 630.26C92.9826 630.26 93.9559 630.487 94.9559 630.94C95.4226 631.153 95.6559 631.42 95.6559 631.74C95.6559 632.06 95.5093 632.453 95.2159 632.92C94.9226 633.387 94.6226 633.62 94.3159 633.62C94.1559 633.62 93.8559 633.52 93.4159 633.32C92.9893 633.12 92.5226 633.02 92.0159 633.02C91.2293 633.02 90.8359 633.167 90.8359 633.46C90.8359 633.86 91.2893 634.12 92.1959 634.24C93.0759 634.333 93.9293 634.587 94.7559 635C95.1426 635.187 95.4626 635.513 95.7159 635.98C95.9826 636.433 96.1159 637.007 96.1159 637.7C96.1159 638.393 95.9826 638.987 95.7159 639.48C95.4626 639.96 95.1026 640.32 94.6359 640.56C93.7826 640.973 92.7093 641.18 91.4159 641.18C90.1359 641.18 88.9026 640.807 87.7159 640.06ZM110.296 630.54C111.149 630.913 111.576 631.373 111.576 631.92C111.576 632.147 111.469 632.513 111.256 633.02C111.042 633.513 110.862 633.947 110.716 634.32L108.516 639.68C108.316 640.267 107.982 640.68 107.516 640.92C107.316 641.013 107.062 641.06 106.756 641.06C106.449 641.06 106.149 640.947 105.856 640.72C105.576 640.48 105.389 640.24 105.296 640L105.136 639.66C105.029 639.393 104.636 638.353 103.956 636.54C103.822 636.86 103.622 637.387 103.356 638.12C103.102 638.84 102.936 639.293 102.856 639.48C102.789 639.653 102.742 639.773 102.716 639.84C102.702 639.893 102.649 640 102.556 640.16C102.462 640.32 102.356 640.46 102.236 640.58C101.916 640.9 101.549 641.06 101.136 641.06C100.722 641.06 100.376 640.947 100.096 640.72C99.8156 640.48 99.629 640.24 99.5356 640L96.5156 632.64C96.3823 632.24 96.3156 631.98 96.3156 631.86C96.3156 631.327 96.6956 630.907 97.4556 630.6C97.8823 630.427 98.229 630.34 98.4956 630.34C98.7623 630.34 98.9756 630.4 99.1356 630.52C99.309 630.627 99.429 630.74 99.4956 630.86C99.5623 630.967 99.6156 631.08 99.6556 631.2C99.8823 631.733 100.356 632.987 101.076 634.96L102.256 631.72C102.336 631.453 102.482 631.22 102.696 631.02C103.082 630.633 103.476 630.44 103.876 630.44C104.276 630.44 104.616 630.547 104.896 630.76C105.189 630.973 105.389 631.187 105.496 631.4L105.656 631.74C106.322 633.607 106.716 634.673 106.836 634.94L108.056 631.62C108.376 630.767 108.856 630.34 109.496 630.34C109.749 630.34 110.016 630.407 110.296 630.54ZM111.984 635.74C111.984 634.14 112.544 632.82 113.664 631.78C114.784 630.74 116.064 630.22 117.504 630.22C118.944 630.22 120.218 630.74 121.324 631.78C122.431 632.807 122.984 634.12 122.984 635.72C122.984 636.827 122.698 637.813 122.124 638.68C121.551 639.533 120.851 640.167 120.024 640.58C119.211 640.98 118.364 641.18 117.484 641.18C116.604 641.18 115.751 640.967 114.924 640.54C114.098 640.1 113.398 639.46 112.824 638.62C112.264 637.767 111.984 636.807 111.984 635.74ZM116.164 637.18C116.591 637.5 117.024 637.66 117.464 637.66C117.904 637.66 118.344 637.493 118.784 637.16C119.224 636.827 119.444 636.333 119.444 635.68C119.444 635.027 119.238 634.54 118.824 634.22C118.411 633.9 117.964 633.74 117.484 633.74C117.004 633.74 116.558 633.907 116.144 634.24C115.731 634.573 115.524 635.067 115.524 635.72C115.524 636.36 115.738 636.847 116.164 637.18ZM131.437 630.58C131.69 630.66 131.897 630.8 132.057 631C132.23 631.187 132.317 631.493 132.317 631.92C132.317 632.347 132.19 632.813 131.937 633.32C131.683 633.827 131.317 634.08 130.837 634.08C130.597 634.08 130.363 634.027 130.137 633.92C129.923 633.813 129.637 633.76 129.277 633.76C128.917 633.76 128.577 633.887 128.257 634.14C127.95 634.393 127.797 634.7 127.797 635.06V639.26C127.797 639.567 127.783 639.8 127.757 639.96C127.743 640.107 127.683 640.28 127.577 640.48C127.377 640.827 126.857 641 126.017 641C125.377 641 124.917 640.887 124.637 640.66C124.423 640.473 124.303 640.187 124.277 639.8C124.277 639.667 124.277 639.473 124.277 639.22V632.2C124.277 631.893 124.283 631.667 124.297 631.52C124.323 631.36 124.383 631.187 124.477 631C124.663 630.64 125.183 630.46 126.037 630.46C126.837 630.46 127.337 630.613 127.537 630.92C127.683 631.133 127.757 631.353 127.757 631.58C127.823 631.487 127.917 631.373 128.037 631.24C128.17 631.107 128.443 630.927 128.857 630.7C129.27 630.473 129.63 630.36 129.937 630.36C130.257 630.36 130.523 630.38 130.737 630.42C130.95 630.447 131.183 630.5 131.437 630.58ZM139.872 626.08C139.978 625.88 140.158 625.74 140.412 625.66C140.665 625.58 140.998 625.54 141.412 625.54C141.838 625.54 142.178 625.58 142.432 625.66C142.685 625.74 142.858 625.88 142.952 626.08C143.058 626.28 143.118 626.46 143.132 626.62C143.158 626.767 143.172 626.993 143.172 627.3V639.24C143.172 639.547 143.158 639.78 143.132 639.94C143.118 640.087 143.058 640.253 142.952 640.44C142.752 640.8 142.185 640.98 141.252 640.98C140.332 640.98 139.818 640.653 139.712 640C139.152 640.64 138.372 640.96 137.372 640.96C136.172 640.96 135.078 640.44 134.092 639.4C133.105 638.347 132.612 637.127 132.612 635.74C132.612 634.34 133.105 633.113 134.092 632.06C135.092 631.007 136.185 630.48 137.372 630.48C138.358 630.48 139.125 630.813 139.672 631.48V627.28C139.672 626.973 139.678 626.747 139.692 626.6C139.718 626.44 139.778 626.267 139.872 626.08ZM136.632 636.94C136.978 637.3 137.398 637.48 137.892 637.48C138.385 637.48 138.792 637.3 139.112 636.94C139.445 636.58 139.612 636.187 139.612 635.76C139.612 635.32 139.452 634.913 139.132 634.54C138.825 634.167 138.405 633.98 137.872 633.98C137.338 633.98 136.912 634.167 136.592 634.54C136.272 634.9 136.112 635.3 136.112 635.74C136.112 636.18 136.285 636.58 136.632 636.94ZM147.109 632.576C146.453 632.576 145.901 632.352 145.453 631.904C145.005 631.456 144.781 630.896 144.781 630.224C144.781 629.536 145.005 628.984 145.453 628.568C145.901 628.136 146.453 627.92 147.109 627.92C147.765 627.92 148.317 628.136 148.765 628.568C149.213 628.984 149.437 629.536 149.437 630.224C149.437 630.896 149.213 631.456 148.765 631.904C148.317 632.352 147.765 632.576 147.109 632.576ZM147.109 641.192C146.453 641.192 145.901 640.968 145.453 640.52C145.005 640.072 144.781 639.512 144.781 638.84C144.781 638.152 145.005 637.6 145.453 637.184C145.901 636.752 146.453 636.536 147.109 636.536C147.765 636.536 148.317 636.752 148.765 637.184C149.213 637.6 149.437 638.152 149.437 638.84C149.437 639.512 149.213 640.072 148.765 640.52C148.317 640.968 147.765 641.192 147.109 641.192Z" fill="white"/>
<rect x="162" y="788" width="91" height="49" rx="24.5" fill="#0C3C2B"/>
<path d="M173.992 821V804.2H177.88V817.832H186.304V821H173.992ZM194.31 821.192C192.934 821.192 191.71 820.904 190.638 820.328C189.582 819.752 188.742 818.968 188.118 817.976C187.51 816.968 187.206 815.824 187.206 814.544C187.206 813.248 187.51 812.104 188.118 811.112C188.742 810.104 189.582 809.32 190.638 808.76C191.71 808.184 192.934 807.896 194.31 807.896C195.67 807.896 196.886 808.184 197.958 808.76C199.03 809.32 199.87 810.096 200.478 811.088C201.086 812.08 201.39 813.232 201.39 814.544C201.39 815.824 201.086 816.968 200.478 817.976C199.87 818.968 199.03 819.752 197.958 820.328C196.886 820.904 195.67 821.192 194.31 821.192ZM194.31 818.12C194.934 818.12 195.494 817.976 195.99 817.688C196.486 817.4 196.878 816.992 197.166 816.464C197.454 815.92 197.598 815.28 197.598 814.544C197.598 813.792 197.454 813.152 197.166 812.624C196.878 812.096 196.486 811.688 195.99 811.4C195.494 811.112 194.934 810.968 194.31 810.968C193.686 810.968 193.126 811.112 192.63 811.4C192.134 811.688 191.734 812.096 191.43 812.624C191.142 813.152 190.998 813.792 190.998 814.544C190.998 815.28 191.142 815.92 191.43 816.464C191.734 816.992 192.134 817.4 192.63 817.688C193.126 817.976 193.686 818.12 194.31 818.12ZM209.964 825.848C208.748 825.848 207.572 825.696 206.436 825.392C205.316 825.104 204.38 824.664 203.628 824.072L205.116 821.384C205.66 821.832 206.348 822.184 207.18 822.44C208.028 822.712 208.86 822.848 209.676 822.848C211.004 822.848 211.964 822.552 212.556 821.96C213.164 821.368 213.468 820.488 213.468 819.32V817.376L213.708 814.136L213.66 810.872V808.088H217.212V818.84C217.212 821.24 216.588 823.008 215.34 824.144C214.092 825.28 212.3 825.848 209.964 825.848ZM209.388 820.376C208.188 820.376 207.1 820.12 206.124 819.608C205.164 819.08 204.388 818.352 203.796 817.424C203.22 816.48 202.932 815.384 202.932 814.136C202.932 812.872 203.22 811.776 203.796 810.848C204.388 809.904 205.164 809.176 206.124 808.664C207.1 808.152 208.188 807.896 209.388 807.896C210.476 807.896 211.436 808.12 212.268 808.568C213.1 809 213.748 809.68 214.212 810.608C214.676 811.52 214.908 812.696 214.908 814.136C214.908 815.56 214.676 816.736 214.212 817.664C213.748 818.576 213.1 819.256 212.268 819.704C211.436 820.152 210.476 820.376 209.388 820.376ZM210.132 817.304C210.788 817.304 211.372 817.176 211.884 816.92C212.396 816.648 212.796 816.272 213.084 815.792C213.372 815.312 213.516 814.76 213.516 814.136C213.516 813.496 213.372 812.944 213.084 812.48C212.796 812 212.396 811.632 211.884 811.376C211.372 811.104 210.788 810.968 210.132 810.968C209.476 810.968 208.892 811.104 208.38 811.376C207.868 811.632 207.46 812 207.156 812.48C206.868 812.944 206.724 813.496 206.724 814.136C206.724 814.76 206.868 815.312 207.156 815.792C207.46 816.272 207.868 816.648 208.38 816.92C208.892 817.176 209.476 817.304 210.132 817.304ZM220.697 821V808.088H224.441V821H220.697ZM222.569 806.288C221.881 806.288 221.321 806.088 220.889 805.688C220.457 805.288 220.241 804.792 220.241 804.2C220.241 803.608 220.457 803.112 220.889 802.712C221.321 802.312 221.881 802.112 222.569 802.112C223.257 802.112 223.817 802.304 224.249 802.688C224.681 803.056 224.897 803.536 224.897 804.128C224.897 804.752 224.681 805.272 224.249 805.688C223.833 806.088 223.273 806.288 222.569 806.288ZM235.764 807.896C236.788 807.896 237.7 808.104 238.5 808.52C239.316 808.92 239.956 809.544 240.42 810.392C240.884 811.224 241.116 812.296 241.116 813.608V821H237.372V814.184C237.372 813.144 237.14 812.376 236.676 811.88C236.228 811.384 235.588 811.136 234.756 811.136C234.164 811.136 233.628 811.264 233.148 811.52C232.684 811.76 232.316 812.136 232.044 812.648C231.788 813.16 231.66 813.816 231.66 814.616V821H227.916V808.088H231.492V811.664L230.82 810.584C231.284 809.72 231.948 809.056 232.812 808.592C233.676 808.128 234.66 807.896 235.764 807.896Z" fill="white"/>
<path d="M286.79 100.08H285.75V106.66H286.79V100.08Z" fill="#1D4E32"/>
<path d="M286.79 94.73H285.79C285.785 90.8975 284.259 87.2237 281.548 84.5147C278.837 81.8056 275.162 80.2827 271.33 80.28V79.28C275.424 79.2932 279.347 80.9249 282.244 83.8192C285.14 86.7135 286.774 90.6356 286.79 94.73Z" fill="#1D4E32"/>
<path d="M271.29 82.8801H133.27C126.72 82.8801 121.41 88.19 121.41 94.7401V376.24C121.41 382.79 126.72 388.1 133.27 388.1H271.29C277.84 388.1 283.15 382.79 283.15 376.24V94.7401C283.15 88.19 277.84 82.8801 271.29 82.8801Z" fill="#1D4E32"/>
<path opacity="0.95" d="M277.77 376.24V94.7299C277.77 90.7038 274.506 87.4399 270.48 87.4399L132.46 87.4399C128.434 87.4399 125.17 90.7038 125.17 94.7299L125.17 376.24C125.17 380.266 128.434 383.53 132.46 383.53H270.48C274.506 383.53 277.77 380.266 277.77 376.24Z" fill="white"/>
<path d="M201.48 372.23C206.036 372.23 209.73 368.536 209.73 363.98C209.73 359.424 206.036 355.73 201.48 355.73C196.924 355.73 193.23 359.424 193.23 363.98C193.23 368.536 196.924 372.23 201.48 372.23Z" fill="#1D4E32"/>
<path d="M195.17 86.6101C195.17 88.4162 195.887 90.1484 197.165 91.4255C198.442 92.7026 200.174 93.4201 201.98 93.4201C203.786 93.4201 205.518 92.7026 206.795 91.4255C208.072 90.1484 208.79 88.4162 208.79 86.6101H195.17Z" fill="#1D4E32"/>
<path opacity="0.7" d="M246.51 116.16H157.51C153.88 116.171 150.401 117.617 147.834 120.184C145.267 122.751 143.82 126.23 143.81 129.86V139C143.82 142.63 145.267 146.109 147.834 148.676C150.401 151.243 153.88 152.69 157.51 152.7H246.51L260.21 160.82V129.82C260.186 126.198 258.734 122.731 256.169 120.173C253.603 117.615 250.132 116.173 246.51 116.16Z" fill="#1D4E32"/>
<path d="M244.03 129.25H159.94V131.53H244.03V129.25Z" fill="white"/>
<path d="M244.03 137.33H176.12V139.61H244.03V137.33Z" fill="white"/>
<path opacity="0.15" d="M157.46 177H246.46C250.09 177.011 253.569 178.457 256.136 181.024C258.703 183.591 260.149 187.07 260.16 190.7V199.83C260.149 203.46 258.703 206.939 256.136 209.506C253.569 212.073 250.09 213.519 246.46 213.53H157.46L143.76 221.65V190.65C143.781 187.028 145.233 183.56 147.799 181.004C150.365 178.447 153.838 177.008 157.46 177Z" fill="#1D4E32"/>
<path opacity="0.5" d="M244.03 190.08H159.94V192.36H244.03V190.08Z" fill="#1D4E32"/>
<path opacity="0.5" d="M198.94 198.17H159.94V200.45H198.94V198.17Z" fill="#1D4E32"/>
<path opacity="0.5" d="M220.89 198.17H205.03V200.45H220.89V198.17Z" fill="#1D4E32"/>
<path opacity="0.7" d="M246.51 237.83H157.51C153.88 237.841 150.401 239.287 147.834 241.854C145.267 244.421 143.82 247.9 143.81 251.53V260.66C143.818 264.291 145.264 267.771 147.831 270.339C150.399 272.906 153.879 274.352 157.51 274.36H246.51L260.21 282.48V251.48C260.183 247.859 258.73 244.395 256.165 241.84C253.6 239.284 250.131 237.843 246.51 237.83Z" fill="#1D4E32"/>
<path d="M244.03 250.91H159.94V253.19H244.03V250.91Z" fill="white"/>
<path d="M244.03 259H176.12V261.28H244.03V259Z" fill="white"/>
<path opacity="0.15" d="M157.46 298.66H192.09C195.719 298.673 199.196 300.121 201.763 302.687C204.329 305.254 205.777 308.731 205.79 312.36V321.5C205.777 325.13 204.329 328.607 201.763 331.173C199.196 333.739 195.719 335.187 192.09 335.2H157.46L143.76 343.31V312.36C143.771 308.73 145.217 305.251 147.784 302.684C150.351 300.117 153.83 298.671 157.46 298.66Z" fill="#1D4E32"/>
<path opacity="0.5" d="M164.4 316.93C164.4 317.721 164.165 318.494 163.726 319.152C163.286 319.81 162.662 320.323 161.931 320.625C161.2 320.928 160.395 321.007 159.62 320.853C158.844 320.699 158.131 320.318 157.571 319.758C157.012 319.199 156.631 318.486 156.477 317.71C156.322 316.934 156.402 316.13 156.704 315.399C157.007 314.668 157.52 314.044 158.178 313.604C158.835 313.165 159.609 312.93 160.4 312.93C161.457 312.943 162.467 313.368 163.214 314.116C163.961 314.863 164.387 315.873 164.4 316.93Z" fill="#1D4E32"/>
<path opacity="0.5" d="M172.49 317.74C174.727 317.74 176.54 315.927 176.54 313.69C176.54 311.453 174.727 309.64 172.49 309.64C170.253 309.64 168.44 311.453 168.44 313.69C168.44 315.927 170.253 317.74 172.49 317.74Z" fill="#1D4E32"/>
<path opacity="0.5" d="M188.67 321.78C188.67 322.571 188.435 323.345 187.996 324.002C187.556 324.66 186.932 325.173 186.201 325.476C185.47 325.778 184.665 325.858 183.89 325.703C183.114 325.549 182.401 325.168 181.841 324.608C181.282 324.049 180.901 323.336 180.747 322.56C180.592 321.784 180.672 320.98 180.974 320.249C181.277 319.518 181.79 318.894 182.448 318.454C183.105 318.015 183.879 317.78 184.67 317.78C185.731 317.78 186.748 318.201 187.498 318.952C188.248 319.702 188.67 320.719 188.67 321.78Z" fill="#1D4E32"/>
<path d="M314.33 307.2C315.43 309.39 316.41 311.59 317.44 313.79C318.47 315.99 319.44 318.23 320.36 320.47C321.28 322.71 322.24 324.96 323.12 327.25C324 329.54 324.89 331.83 325.7 334.25L322.12 330.88C324.207 331.593 326.394 331.971 328.6 332C331.159 332.069 333.719 331.952 336.26 331.65C338.9 331.37 341.56 330.93 344.26 330.43C346.96 329.93 349.66 329.31 352.26 328.7L354.63 334.46C352.028 335.89 349.336 337.15 346.57 338.23C343.8 339.342 340.965 340.283 338.08 341.05C335.081 341.858 332.015 342.394 328.92 342.65C325.467 342.985 321.983 342.701 318.63 341.81L316.28 341.16L315 338.41C313.08 334.2 311 329.88 309 325.57C308 323.41 306.95 321.24 305.95 319.07C304.95 316.9 303.95 314.72 302.95 312.54L314.33 307.2Z" fill="#FFC3BD"/>
<path d="M349 330.46L352.93 326.62L359.17 333.37C359.17 333.37 356.91 337.32 351.29 335.02L349 330.46Z" fill="#FFC3BD"/>
<path d="M358.86 324.08L362.3 329.69L359.18 333.37L352.94 326.62L358.86 324.08Z" fill="#FFC3BD"/>
<path d="M296.67 298.21C304.67 295.12 310.87 299.73 320.98 312.49L309.14 324.66C309.14 324.66 281.07 304.19 296.67 298.21Z" fill="#263238"/>
<path opacity="0.2" d="M311.69 311.41C307.91 308.96 304.62 309.65 301.84 311.93C302.89 315.82 305.58 320.28 308.17 323.93C308.78 324.41 309.17 324.67 309.17 324.67L315.77 317.88C315.598 316.571 315.144 315.315 314.439 314.198C313.735 313.081 312.797 312.13 311.69 311.41Z" fill="black"/>
<path d="M357.6 383.04L367.18 381.93L366.38 362.29L356.81 363.39L357.6 383.04Z" fill="#FFC3BD"/>
<path d="M367.26 377.8L356.47 377.95C356.295 377.959 356.129 378.03 356.002 378.152C355.875 378.273 355.797 378.436 355.78 378.61L354.56 387.1C354.524 387.301 354.532 387.506 354.582 387.704C354.633 387.901 354.725 388.085 354.853 388.244C354.981 388.402 355.142 388.531 355.324 388.622C355.507 388.713 355.706 388.763 355.91 388.77C359.26 388.66 360.8 388.41 365.03 388.34C367.64 388.34 375.5 388.49 379.1 388.44C382.7 388.39 382.94 384.44 381.45 384.09C374.76 382.59 370.91 380.44 368.68 378.36C368.299 377.993 367.789 377.792 367.26 377.8Z" fill="#263238"/>
<path d="M369.55 375.3C369.701 375.243 369.863 375.223 370.024 375.242C370.184 375.261 370.337 375.319 370.47 375.41C370.576 375.462 370.666 375.54 370.735 375.636C370.803 375.732 370.846 375.843 370.86 375.96C370.98 376.96 368.86 378.76 368.57 378.96C368.541 378.981 368.506 378.992 368.47 378.992C368.434 378.992 368.399 378.981 368.37 378.96C368.336 378.942 368.309 378.914 368.291 378.88C368.273 378.847 368.266 378.808 368.27 378.77C368.34 377.69 368.59 375.77 369.44 375.34L369.55 375.3ZM368.68 378.36C369.52 377.63 370.56 376.53 370.49 375.98C370.49 375.92 370.49 375.83 370.32 375.75C370.221 375.678 370.105 375.634 369.983 375.624C369.862 375.613 369.74 375.636 369.63 375.69C369.17 375.94 368.82 376.93 368.68 378.36Z" fill="#1D4E32"/>
<path d="M369.45 378C369.804 377.814 370.191 377.7 370.59 377.666C370.988 377.632 371.39 377.677 371.77 377.8C371.901 377.883 372.001 378.005 372.057 378.149C372.113 378.293 372.121 378.451 372.08 378.6C372.059 378.741 372.006 378.875 371.925 378.991C371.843 379.107 371.735 379.203 371.61 379.27C370.61 379.82 368.49 379 368.4 378.97C368.369 378.956 368.341 378.935 368.319 378.909C368.296 378.883 368.28 378.853 368.27 378.82C368.263 378.788 368.265 378.754 368.276 378.722C368.287 378.691 368.305 378.662 368.33 378.64C368.664 378.364 369.043 378.147 369.45 378ZM371.31 379L371.42 378.95C371.498 378.905 371.566 378.843 371.618 378.768C371.67 378.694 371.705 378.609 371.72 378.52C371.72 378.28 371.67 378.19 371.59 378.15C371.11 377.84 369.64 378.24 368.85 378.75C369.631 379.061 370.483 379.147 371.31 379Z" fill="#1D4E32"/>
<path opacity="0.2" d="M356.81 363.4L366.38 362.29L366.79 372.42L357.17 372.46L356.81 363.4Z" fill="black"/>
<path d="M309.84 352C309.84 352 334.7 328.88 350.84 328.53C362.62 328.28 371.04 367.24 371.04 367.24L357.04 367.51C357.04 367.51 354.58 353.73 345.43 349.93C332.21 369.77 278.32 408.98 283.43 366.47C291.43 363.46 309.84 352 309.84 352Z" fill="#1D4E32"/>
<path opacity="0.2" d="M309.84 352C309.84 352 334.7 328.88 350.84 328.53C362.62 328.28 371.04 367.24 371.04 367.24L357.04 367.51C357.04 367.51 354.58 353.73 345.43 349.93C332.21 369.77 278.32 408.98 283.43 366.47C291.43 363.46 309.84 352 309.84 352Z" fill="black"/>
<path d="M370.99 369.17L354.53 370.75L354.58 364.75L371.99 362.68L370.99 369.17Z" fill="#263238"/>
<path d="M277.2 367.94C277.2 367.94 266.51 347.06 265.2 313.43C264.9 305.51 272.03 298.04 280.2 297.62C287.06 297.26 294.32 297.17 300.2 297.19C306.08 297.21 310.58 301.11 311.25 306.77C312.73 319.25 312.99 338.2 320.64 360.77L277.2 367.94Z" fill="#263238"/>
<path opacity="0.2" d="M270.21 313.6C276.1 306.95 278.13 309.07 279.01 309.87C287.17 317.26 275.19 340.27 272.79 343.66C271.104 335.066 270.101 326.352 269.79 317.6C269.729 316.253 269.87 314.905 270.21 313.6Z" fill="black"/>
<path d="M288.16 277.63C287.5 283.76 285.88 293.17 281.71 297.54C284.99 300.63 290.33 303.67 297.92 304.94C301.84 303.32 302.36 299.71 300.46 297.2C293.76 296.03 293.84 294.13 296.37 289.86L288.16 277.63Z" fill="#FFC3BD"/>
<path opacity="0.2" d="M291.51 282.62L296.37 289.85C295.726 290.845 295.224 291.926 294.88 293.06C292.5 292.06 289.88 288.42 290.4 285.74C290.582 284.642 290.958 283.586 291.51 282.62Z" fill="black"/>
<path d="M305.72 266.33C309.65 270.5 317.91 270.52 314.36 265.58C310.81 260.64 302.66 263.08 305.72 266.33Z" fill="#263238"/>
<path d="M289.79 265.88C287.6 273.88 285.92 278.36 288.41 283.88C289.166 285.68 290.403 287.238 291.986 288.382C293.568 289.526 295.435 290.212 297.381 290.366C299.328 290.52 301.279 290.135 303.022 289.254C304.764 288.373 306.23 287.029 307.26 285.37C311.26 279.05 314.2 267.1 307.79 261.03C306.462 259.674 304.797 258.696 302.966 258.196C301.135 257.696 299.203 257.693 297.371 258.187C295.538 258.681 293.87 259.654 292.537 261.006C291.205 262.358 290.257 264.04 289.79 265.88Z" fill="#FFC3BD"/>
<path d="M288 273.3C289 273.12 293.94 271.62 296.35 269.3C299.06 266.69 299.08 264.16 298.35 263.01C297.62 261.86 291.9 259.65 289.23 260.16C285.01 260.97 286.05 268.44 286.11 270.46C286.142 271.059 286.334 271.639 286.666 272.139C286.999 272.638 287.46 273.039 288 273.3Z" fill="#FFC3BD"/>
<path opacity="0.7" d="M288 273.3C289 273.12 293.94 271.62 296.35 269.3C299.06 266.69 299.08 264.16 298.35 263.01C297.62 261.86 291.9 259.65 289.23 260.16C285.01 260.97 286.05 268.44 286.11 270.46C286.142 271.059 286.334 271.639 286.666 272.139C286.999 272.638 287.46 273.039 288 273.3Z" fill="#263238"/>
<path d="M283.81 273.85C284.588 275.569 285.984 276.932 287.72 277.67C290.02 278.6 291.33 276.67 290.83 274.32C290.38 272.25 288.64 269.26 286.27 269.32C283.9 269.38 282.87 271.73 283.81 273.85Z" fill="#FFC3BD"/>
<path d="M291.33 262.55C301.53 264.73 308.78 270.47 313.6 267.02C317.01 264.58 314.77 260.13 310.86 256.91C307.52 254.16 302.86 253.31 301.46 251.06C301.297 251.808 301.36 252.588 301.641 253.301C301.923 254.013 302.41 254.625 303.04 255.06C303.04 255.06 293.83 253.64 291.28 251.24C290.67 252.67 293.03 255.43 293.03 255.43C293.03 255.43 290.43 257.9 283.03 255.11C283.47 257.5 285.53 261.31 291.33 262.55Z" fill="#263238"/>
<path d="M311.59 267.83H311.19V267.31C312.071 267.42 312.964 267.237 313.731 266.791C314.499 266.345 315.099 265.66 315.44 264.84C315.823 263.744 315.851 262.556 315.521 261.443C315.191 260.33 314.519 259.35 313.6 258.64C312.717 257.953 311.753 257.375 310.73 256.92C308.36 255.73 305.67 254.38 304.37 250.45L304.86 250.29C306.09 254.01 308.57 255.29 310.97 256.45C312.039 256.927 313.046 257.531 313.97 258.25C314.98 259.024 315.718 260.098 316.078 261.319C316.437 262.539 316.4 263.842 315.97 265.04C315.619 265.902 315.009 266.633 314.224 267.133C313.44 267.632 312.519 267.876 311.59 267.83Z" fill="#263238"/>
<path d="M301.35 273.65C301.13 274.28 301.29 274.93 301.69 275.09C302.09 275.25 302.6 274.87 302.82 274.24C303.04 273.61 302.88 272.96 302.48 272.8C302.08 272.64 301.56 273 301.35 273.65Z" fill="#263238"/>
<path d="M308.89 275.93C308.68 276.56 308.83 277.2 309.24 277.36C309.65 277.52 310.15 277.15 310.36 276.51C310.57 275.87 310.43 275.24 310.02 275.07C309.61 274.9 309.11 275.29 308.89 275.93Z" fill="#263238"/>
<path d="M306.12 275.16C306.198 277.4 306.575 279.62 307.24 281.76C305.78 282.36 304.07 281.14 304.07 281.14L306.12 275.16Z" fill="#ED847E"/>
<path d="M300 282.66C298.645 281.914 297.639 280.663 297.2 279.18C297.193 279.156 297.19 279.13 297.194 279.105C297.197 279.08 297.205 279.055 297.218 279.034C297.232 279.012 297.249 278.993 297.27 278.979C297.291 278.964 297.315 278.955 297.34 278.95C297.365 278.944 297.391 278.943 297.416 278.948C297.442 278.952 297.466 278.962 297.487 278.976C297.509 278.99 297.527 279.008 297.541 279.03C297.556 279.051 297.565 279.075 297.57 279.1C297.826 279.906 298.26 280.645 298.84 281.261C299.42 281.877 300.131 282.355 300.92 282.66C300.969 282.68 301.008 282.719 301.029 282.767C301.049 282.816 301.05 282.871 301.03 282.92C301.024 282.945 301.012 282.967 300.996 282.987C300.98 283.006 300.959 283.022 300.936 283.032C300.913 283.043 300.888 283.048 300.863 283.048C300.838 283.047 300.813 283.041 300.79 283.03C300.519 282.925 300.255 282.801 300 282.66Z" fill="#263238"/>
<path d="M299.3 269.51C299.239 269.477 299.187 269.429 299.15 269.37C299.093 269.284 299.073 269.178 299.093 269.077C299.114 268.976 299.174 268.887 299.26 268.83C299.767 268.487 300.352 268.275 300.961 268.214C301.57 268.153 302.185 268.244 302.75 268.48C302.798 268.502 302.841 268.532 302.877 268.571C302.913 268.609 302.941 268.654 302.96 268.703C302.979 268.753 302.987 268.805 302.986 268.858C302.984 268.91 302.972 268.962 302.95 269.01C302.931 269.056 302.902 269.098 302.866 269.132C302.83 269.167 302.787 269.194 302.741 269.212C302.694 269.23 302.644 269.238 302.594 269.236C302.544 269.234 302.495 269.221 302.45 269.2C301.999 269.025 301.513 268.962 301.032 269.016C300.551 269.07 300.091 269.24 299.69 269.51C299.631 269.544 299.563 269.562 299.495 269.562C299.427 269.562 299.359 269.544 299.3 269.51Z" fill="#263238"/>
<path d="M311.46 274.06C311.398 274.039 311.343 274.004 311.297 273.957C311.252 273.91 311.219 273.853 311.2 273.79C311.072 273.303 310.834 272.852 310.504 272.47C310.175 272.089 309.763 271.788 309.3 271.59C309.201 271.556 309.119 271.485 309.071 271.392C309.022 271.299 309.011 271.191 309.04 271.09C309.052 271.042 309.075 270.996 309.106 270.957C309.137 270.917 309.176 270.885 309.22 270.861C309.264 270.838 309.313 270.824 309.363 270.82C309.413 270.816 309.463 270.823 309.51 270.84C310.099 271.077 310.624 271.448 311.044 271.924C311.464 272.4 311.768 272.967 311.93 273.58C311.947 273.629 311.954 273.68 311.951 273.731C311.947 273.783 311.933 273.833 311.91 273.879C311.887 273.924 311.854 273.965 311.815 273.998C311.775 274.031 311.729 274.055 311.68 274.07C311.607 274.087 311.531 274.083 311.46 274.06Z" fill="#263238"/>
<path d="M390.83 387.71L396.53 379.42L381.18 366.05L375.48 374.34L390.83 387.71Z" fill="#FFC3BD"/>
<path d="M392.59 375.5L385.9 383.83C385.783 383.97 385.719 384.147 385.719 384.33C385.719 384.513 385.783 384.69 385.9 384.83L391.11 391.31C391.234 391.464 391.391 391.589 391.569 391.674C391.747 391.76 391.942 391.804 392.14 391.804C392.338 391.804 392.533 391.76 392.711 391.674C392.89 391.589 393.046 391.464 393.17 391.31C395.28 388.59 396.69 386.5 399.4 383.12C401.07 381.04 406.32 374.96 408.63 372.12C410.94 369.28 408.3 366.48 407.09 367.44C401.66 371.73 396.83 374.36 393.91 374.76C393.393 374.834 392.923 375.098 392.59 375.5Z" fill="#263238"/>
<path d="M392.15 372.08C392.198 371.926 392.281 371.784 392.392 371.667C392.503 371.549 392.639 371.458 392.79 371.4C392.895 371.346 393.012 371.317 393.13 371.317C393.248 371.317 393.365 371.346 393.47 371.4C394.38 371.93 394.47 374.71 394.47 375.03C394.469 375.067 394.457 375.103 394.435 375.133C394.414 375.163 394.384 375.187 394.35 375.2C394.318 375.22 394.282 375.23 394.245 375.23C394.208 375.23 394.172 375.22 394.14 375.2C393.32 374.5 391.96 373.2 392.14 372.2C392.138 372.16 392.141 372.119 392.15 372.08ZM394.08 374.61C394 373.49 393.75 372.01 393.27 371.73C393.223 371.707 393.172 371.695 393.12 371.695C393.068 371.695 393.017 371.707 392.97 371.73C392.855 371.77 392.753 371.839 392.672 371.93C392.592 372.021 392.536 372.131 392.51 372.25C392.44 372.77 393 373.64 394.08 374.61Z" fill="#1D4E32"/>
<path d="M394.27 373.78C394.5 372.93 394.94 372.01 395.49 371.78C395.635 371.724 395.794 371.716 395.943 371.757C396.093 371.799 396.225 371.887 396.32 372.01C396.42 372.112 396.495 372.235 396.54 372.37C396.585 372.505 396.599 372.649 396.58 372.79C396.44 373.89 394.5 375.13 394.41 375.18C394.382 375.198 394.349 375.207 394.315 375.207C394.281 375.207 394.249 375.198 394.22 375.18C394.188 375.169 394.161 375.149 394.141 375.123C394.121 375.096 394.11 375.063 394.11 375.03C394.093 374.607 394.147 374.185 394.27 373.78ZM396.17 372.87C396.17 372.87 396.17 372.8 396.17 372.76C396.183 372.671 396.174 372.58 396.144 372.494C396.114 372.409 396.065 372.332 396 372.27C395.84 372.09 395.72 372.1 395.63 372.14C395.1 372.34 394.54 373.76 394.47 374.69C395.193 374.25 395.781 373.621 396.17 372.87Z" fill="#1D4E32"/>
<path opacity="0.2" d="M375.48 374.34L381.18 366.05L389.1 372.94L382.56 380.51L375.48 374.34Z" fill="black"/>
<path d="M292.81 364.89C292.81 364.89 336.51 320.49 356.18 339.49C368.43 351.33 386.43 367.64 386.43 367.64L376 377.79C376 377.79 349.58 363.74 342.7 355.98C306.6 396.34 274.34 399.1 277.24 367.98C282.357 366.613 287.558 365.581 292.81 364.89Z" fill="#1D4E32"/>
<path d="M389.54 367.73L378.08 382.13L373.22 378.87L384.93 363.58L389.54 367.73Z" fill="#263238"/>
<path d="M277.35 310.61L278.21 328.81C278.37 331.81 278.56 334.81 278.79 337.81C278.91 339.28 279.07 340.73 279.23 342.12C279.32 342.82 279.41 343.5 279.52 344.12C279.63 344.74 279.75 345.32 279.83 345.67C279.835 345.723 279.835 345.777 279.83 345.83C279.665 345.533 279.432 345.279 279.15 345.09C278.987 344.972 278.804 344.884 278.61 344.83C278.5 344.83 278.44 344.83 278.49 344.83C279.309 344.956 280.145 344.902 280.94 344.67C283.585 344.01 286.161 343.096 288.63 341.94C291.3 340.77 293.96 339.42 296.63 338.02C299.3 336.62 301.97 335.13 304.56 333.68L308.3 338.68C303.611 343.044 298.519 346.951 293.09 350.35C291.7 351.2 290.26 352.02 288.74 352.79C287.153 353.609 285.504 354.304 283.81 354.87C282.846 355.188 281.86 355.436 280.86 355.61C279.631 355.839 278.376 355.9 277.13 355.79C276.325 355.715 275.532 355.54 274.77 355.27C273.852 354.947 272.988 354.485 272.21 353.9C271.399 353.271 270.699 352.511 270.14 351.65C269.885 351.257 269.658 350.846 269.46 350.42L269.08 349.5C268.729 348.548 268.431 347.576 268.19 346.59C267.97 345.7 267.79 344.87 267.63 344.04C267.3 342.39 267.05 340.78 266.83 339.19C266.37 336.01 266.04 332.87 265.76 329.74C265.2 323.48 264.87 317.29 264.76 311L277.35 310.61Z" fill="#FFC3BD"/>
<path d="M274.28 298.88C269.57 299.41 262.52 303.88 262.28 324.66L282.48 323.07C282.48 323.07 292 296.85 274.28 298.88Z" fill="#263238"/>
<path d="M321.55 323.15L314.05 323.64C313.607 323.701 313.193 323.894 312.862 324.194C312.53 324.493 312.296 324.886 312.19 325.32L308.68 341.8C308.62 341.979 308.607 342.171 308.64 342.356C308.674 342.542 308.753 342.717 308.872 342.864C308.99 343.011 309.144 343.127 309.318 343.199C309.492 343.272 309.682 343.3 309.87 343.28L317.37 342.79C317.814 342.731 318.229 342.539 318.561 342.239C318.893 341.939 319.127 341.545 319.23 341.11L322.74 324.63C322.8 324.451 322.813 324.259 322.78 324.073C322.746 323.887 322.667 323.713 322.548 323.566C322.43 323.419 322.276 323.303 322.102 323.231C321.928 323.158 321.738 323.13 321.55 323.15Z" fill="#1D4E32"/>
<path d="M305.17 333.29L311.38 331.13L309.85 340.86C309.85 340.86 302.93 342.38 302.36 338.66L303.36 335.35C303.486 334.892 303.715 334.469 304.028 334.112C304.342 333.755 304.732 333.474 305.17 333.29Z" fill="#FFC3BD"/>
<path d="M318.48 331.95L315.79 340.61L309.85 340.86L311.38 331.13L318.48 331.95Z" fill="#FFC3BD"/>
<path d="M103.38 128C98.5 116.67 125.11 104.81 132.63 122.45C145.4 128 129.08 151.6 132.77 155.6C136.46 159.6 139.24 154.75 139.24 154.75C139.24 154.75 142.97 164.69 133.46 172.65C124.94 179.8 99.31 181.74 99.25 167.65C99.17 149.33 109.78 142.85 103.38 128Z" fill="#263238"/>
<path d="M127.85 365.86L120.69 370.03L103.5 350.38L112.42 342.33L127.85 365.86Z" fill="#FF8B7B"/>
<path d="M119.87 368.23L127.26 362.56C127.376 362.457 127.525 362.4 127.68 362.4C127.835 362.4 127.985 362.457 128.1 362.56L133 367.4C133.12 367.536 133.21 367.695 133.263 367.868C133.317 368.04 133.334 368.222 133.312 368.402C133.29 368.581 133.231 368.754 133.137 368.909C133.044 369.064 132.919 369.197 132.77 369.3C130.17 371.23 128.82 372.04 125.57 374.54C123.57 376.07 119.57 379.43 116.83 381.54C114.09 383.65 112.01 381.22 112.98 380.11C117.36 375.11 118.31 372.11 118.98 369.44C119.132 368.948 119.445 368.521 119.87 368.23Z" fill="#263238"/>
<path d="M118.21 371.19C117.696 371.669 117.039 371.968 116.34 372.04C116.173 372.033 116.011 371.985 115.868 371.899C115.724 371.814 115.605 371.693 115.52 371.55C115.471 371.459 115.445 371.358 115.445 371.255C115.445 371.152 115.471 371.05 115.52 370.96C116.02 369.96 119.58 369.17 119.98 369.08C120.018 369.074 120.058 369.079 120.093 369.095C120.129 369.111 120.159 369.137 120.18 369.17C120.199 369.203 120.209 369.241 120.209 369.28C120.209 369.318 120.199 369.356 120.18 369.39C119.58 370.049 118.92 370.651 118.21 371.19ZM116.09 370.82C115.985 370.892 115.9 370.988 115.84 371.1C115.818 371.134 115.806 371.174 115.806 371.215C115.806 371.256 115.818 371.296 115.84 371.33C115.892 371.426 115.968 371.507 116.061 371.565C116.154 371.623 116.261 371.656 116.37 371.66C117.02 371.66 118.15 370.92 119.43 369.58C118.256 369.807 117.128 370.226 116.09 370.82Z" fill="#1D4E32"/>
<path d="M120.09 369.41H120.01C119.01 369.68 116.44 369.54 116.01 368.75C115.92 368.57 115.89 368.26 116.29 367.89C116.575 367.625 116.951 367.478 117.34 367.48C118.65 367.48 120.05 369.03 120.1 369.1C120.117 369.127 120.126 369.158 120.126 369.19C120.126 369.222 120.117 369.253 120.1 369.28C120.11 369.323 120.106 369.369 120.09 369.41ZM116.65 368.12L116.56 368.2C116.3 368.44 116.36 368.56 116.38 368.6C116.62 369.08 118.45 369.31 119.59 369.15C118.993 368.498 118.2 368.059 117.33 367.9C117.085 367.895 116.845 367.972 116.65 368.12Z" fill="#1D4E32"/>
<path d="M101.82 169.08C101.35 171.23 100.82 173.17 100.22 175.18C99.62 177.19 99 179.18 98.28 181.1C96.8965 185.045 95.2735 188.902 93.42 192.65L91.95 195.45C91.42 196.37 90.95 197.29 90.35 198.2L89.49 199.55C89.19 200.01 88.96 200.42 88.55 200.96C88.35 201.22 88.15 201.48 87.88 201.79C87.5404 202.19 87.1581 202.552 86.74 202.87C86.2344 203.257 85.6511 203.53 85.03 203.67C84.7411 203.735 84.4461 203.768 84.15 203.77C83.7879 203.774 83.4272 203.723 83.08 203.62C82.4313 203.445 81.841 203.099 81.37 202.62C80.898 202.147 80.5538 201.562 80.37 200.92C80.2773 200.623 80.2136 200.319 80.18 200.01C80.1018 199.289 80.1018 198.561 80.18 197.84C80.25 197.24 80.35 196.68 80.45 196.14C80.65 195.05 80.91 194.03 81.18 193.01C81.7415 191.003 82.4091 189.026 83.18 187.09L87.18 187.97L86.91 193.97C86.91 194.97 86.85 195.91 86.84 196.83C86.84 197.29 86.84 197.74 86.84 198.14C86.8381 198.428 86.8785 198.714 86.96 198.99C86.96 198.99 86.96 198.99 86.96 198.81C86.8366 198.432 86.6239 198.089 86.34 197.81C85.9524 197.415 85.4706 197.126 84.94 196.97C84.6528 196.892 84.3574 196.849 84.06 196.84C83.8246 196.844 83.5902 196.871 83.36 196.92C83.0019 197.007 82.6629 197.16 82.36 197.37C82.15 197.52 82.23 197.44 82.27 197.37L82.5 196.98L83.84 194.58C84.29 193.74 84.7 192.88 85.14 192.03L86.37 189.43C87.93 185.9 89.37 182.27 90.57 178.57C91.19 176.72 91.76 174.85 92.33 172.98C92.9 171.11 93.41 169.18 93.86 167.41L101.82 169.08Z" fill="#FF8B7B"/>
<path d="M98.4001 158.67C95.5001 159.14 90.9001 177.57 90.9001 177.57L97.5901 182.72C97.5901 182.72 104.3 169.4 104.59 163.41C104.79 159.07 100.59 158.32 98.4001 158.67Z" fill="#FF8B7B"/>
<path d="M87.91 188.86L86.78 179.7L81.53 187.4C81.7535 188.328 82.2422 189.171 82.9364 189.826C83.6307 190.481 84.5006 190.921 85.44 191.09L87.91 188.86Z" fill="#FF8B7B"/>
<path d="M124.6 381.41L116.6 381.68L115.07 353.76L126.17 353.92L124.6 381.41Z" fill="#FF8B7B"/>
<path d="M116.06 379.13L125.06 379.07C125.211 379.064 125.357 379.118 125.469 379.218C125.581 379.319 125.65 379.46 125.66 379.61L126.2 386.7C126.205 387.072 126.063 387.431 125.805 387.699C125.546 387.967 125.192 388.122 124.82 388.13C121.7 388.13 120.2 387.92 116.26 387.95C113.83 387.95 110.26 388.24 106.92 388.27C103.58 388.3 103.61 384.98 105.03 384.67C111.38 383.28 112.49 381.42 114.72 379.67C115.096 379.349 115.567 379.16 116.06 379.13Z" fill="#263238"/>
<path d="M97.9102 158.61C97.9102 158.61 93.9102 159.61 93.9102 206.94L126 209.78C127.61 196.59 128.91 188.48 139.54 162.06C135.179 160.725 130.723 159.722 126.21 159.06C121.395 158.277 116.528 157.846 111.65 157.77C105.25 157.78 97.9102 158.61 97.9102 158.61Z" fill="#1D4E32"/>
<path opacity="0.2" d="M133.17 168.1L134.88 173.93C133.54 177.54 132.43 180.73 131.5 183.6C130.791 178.374 131.364 173.055 133.17 168.1Z" fill="black"/>
<path d="M86.78 179.7L81.53 187.4L87.91 187.03L91.31 179.99L86.78 179.7Z" fill="#FF8B7B"/>
<path d="M90.11 197.41L96.11 197.32C96.3076 197.316 96.5022 197.271 96.6809 197.186C96.8596 197.102 97.0184 196.98 97.1469 196.83C97.2754 196.68 97.3706 196.504 97.4263 196.315C97.482 196.125 97.4969 195.926 97.47 195.73L95.6 182.28C95.5557 181.942 95.3883 181.633 95.1299 181.412C94.8714 181.19 94.5403 181.072 94.2 181.08L88.2 181.17C88.0023 181.171 87.8071 181.214 87.6276 181.297C87.4481 181.38 87.2885 181.5 87.1595 181.65C87.0306 181.799 86.9353 181.975 86.8802 182.165C86.8251 182.355 86.8114 182.554 86.84 182.75L88.71 196.2C88.7542 196.538 88.9212 196.849 89.1794 197.072C89.4376 197.295 89.7688 197.415 90.11 197.41Z" fill="#263238"/>
<path d="M127.41 142.41C125.72 147.05 123.41 155.61 126.16 159.05C121.376 163.049 116.016 166.303 110.26 168.7C106.91 160.88 111.6 157.76 111.6 157.76C117.03 156.97 117.53 153.05 117.21 149.3L127.41 142.41Z" fill="#FF8B7B"/>
<path d="M105.43 137.09C104.59 150.98 96.2401 154.96 98.2001 162.09C100.97 172.09 112.27 164.26 112.27 164.26C112.27 164.26 106.12 166.26 105.73 161.4C105.41 157.4 119.61 158.02 115.67 148.61C113.14 142.55 105.43 137.09 105.43 137.09Z" fill="#263238"/>
<path opacity="0.2" d="M124.5 145.92L117.22 149.3C117.3 150.178 117.3 151.062 117.22 151.94C118.74 152.08 122.68 150.94 124.17 148.48C124.583 147.694 124.7 146.785 124.5 145.92Z" fill="black"/>
<path d="M128.67 129.35C129.4 137.23 129.88 140.56 126.55 145.18C121.55 152.13 111.7 151.31 108.63 143.79C105.86 137.03 105.13 125.27 112.3 120.98C113.875 120.024 115.669 119.486 117.511 119.419C119.352 119.352 121.18 119.757 122.821 120.596C124.462 121.435 125.861 122.68 126.885 124.212C127.908 125.744 128.523 127.513 128.67 129.35Z" fill="#FF8B7B"/>
<path d="M126.93 121.44C120.71 117.17 115.54 125.37 126.58 133.34C137.62 141.31 134 126.29 126.93 121.44Z" fill="#263238"/>
<path d="M123.62 119.15C126.19 121.46 110.89 129.98 102.57 127.15C94.25 124.32 100.93 117.97 103.96 117.15C101.36 119.66 105.91 123.47 108.11 121.09C110.31 118.71 118.46 114.52 123.62 119.15Z" fill="#263238"/>
<path d="M93.87 206.94C93.87 206.94 76.94 278.63 78.43 296.73C80.16 317.89 103.3 352 103.3 352L113.93 342.35C113.93 342.35 103.38 314.41 95.57 296.21C98.07 278.01 120.17 226.59 120.17 209.27L93.87 206.94Z" fill="#1D4E32"/>
<path opacity="0.6" d="M93.87 206.94C93.87 206.94 76.94 278.63 78.43 296.73C80.16 317.89 103.3 352 103.3 352L113.93 342.35C113.93 342.35 103.38 314.41 95.57 296.21C98.07 278.01 120.17 226.59 120.17 209.27L93.87 206.94Z" fill="black"/>
<path d="M115.89 343.79L103.33 353.15L100.11 350.7L113.89 339.83L115.89 343.79Z" fill="#1D4E32"/>
<path opacity="0.2" d="M106.4 238.47C97.0699 251.39 96.6199 275.15 97.1999 288.47C100.4 276.21 107.11 257.9 112.46 241.4C112.33 235.08 110.76 232.42 106.4 238.47Z" fill="black"/>
<path d="M99.8901 207C99.8901 207 106.09 268.91 108.16 289.81C110.62 314.62 114.23 354.41 114.23 354.41L126.17 353.91C126.17 353.91 128.79 320.18 126.85 297.91C127.2 268.41 131.55 228.3 125.95 209.74L99.8901 207Z" fill="#1D4E32"/>
<path opacity="0.6" d="M99.8901 207C99.8901 207 106.09 268.91 108.16 289.81C110.62 314.62 114.23 354.41 114.23 354.41L126.17 353.91C126.17 353.91 128.79 320.18 126.85 297.91C127.2 268.41 131.55 228.3 125.95 209.74L99.8901 207Z" fill="black"/>
<path d="M127.08 356.1L113.38 355.71L112.42 351.4L127.92 350.97L127.08 356.1Z" fill="#1D4E32"/>
<path d="M116.41 133.7C116.51 134.33 116.25 134.9 115.83 134.97C115.41 135.04 115 134.57 114.9 133.97C114.8 133.37 115.06 132.77 115.48 132.7C115.9 132.63 116.31 133.06 116.41 133.7Z" fill="#263238"/>
<path d="M109.22 134.81C109.32 135.45 109.06 136.02 108.64 136.08C108.22 136.14 107.81 135.68 107.71 135.08C107.61 134.48 107.87 133.87 108.29 133.81C108.71 133.75 109.12 134.18 109.22 134.81Z" fill="#263238"/>
<path d="M108.47 133.78L106.88 133.58C106.88 133.58 107.85 134.65 108.47 133.78Z" fill="#263238"/>
<path d="M111.58 135.44C111.235 136.977 110.684 138.461 109.94 139.85C110.3 140.03 110.695 140.13 111.097 140.142C111.5 140.154 111.9 140.078 112.27 139.92L111.58 135.44Z" fill="#FF5652"/>
<path d="M116.41 141.67C116.085 141.785 115.751 141.869 115.41 141.92C115.361 141.929 115.31 141.918 115.269 141.89C115.228 141.862 115.2 141.819 115.19 141.77C115.186 141.745 115.186 141.719 115.192 141.695C115.198 141.67 115.209 141.647 115.224 141.626C115.239 141.606 115.257 141.588 115.279 141.575C115.301 141.562 115.325 141.554 115.35 141.55C116.145 141.447 116.904 141.157 117.564 140.703C118.225 140.249 118.769 139.645 119.15 138.94C119.173 138.897 119.212 138.864 119.258 138.848C119.304 138.831 119.354 138.832 119.4 138.85C119.423 138.86 119.444 138.874 119.461 138.892C119.479 138.91 119.493 138.931 119.502 138.954C119.511 138.977 119.516 139.002 119.515 139.027C119.515 139.052 119.51 139.077 119.5 139.1C118.845 140.327 117.736 141.249 116.41 141.67Z" fill="#263238"/>
<path d="M130.86 134.73C130.806 135.495 130.602 136.243 130.259 136.929C129.916 137.616 129.44 138.228 128.86 138.73C127.32 140.05 125.69 138.89 125.4 136.98C125.13 135.27 125.62 132.52 127.51 131.98C127.92 131.854 128.355 131.831 128.776 131.914C129.197 131.997 129.591 132.183 129.923 132.456C130.255 132.728 130.514 133.078 130.678 133.475C130.841 133.872 130.904 134.303 130.86 134.73Z" fill="#FF8B7B"/>
<path d="M119.68 129.76C119.63 129.77 119.579 129.77 119.529 129.759C119.479 129.749 119.432 129.729 119.39 129.7C119.008 129.416 118.564 129.227 118.094 129.149C117.625 129.071 117.144 129.105 116.69 129.25C116.644 129.269 116.595 129.279 116.545 129.279C116.495 129.279 116.446 129.269 116.4 129.249C116.355 129.23 116.313 129.201 116.279 129.165C116.245 129.129 116.218 129.087 116.2 129.04C116.164 128.947 116.166 128.844 116.205 128.752C116.244 128.66 116.318 128.588 116.41 128.55C116.979 128.356 117.586 128.303 118.18 128.396C118.774 128.488 119.337 128.723 119.82 129.08C119.901 129.137 119.957 129.223 119.976 129.32C119.994 129.417 119.974 129.517 119.92 129.6C119.861 129.679 119.776 129.736 119.68 129.76Z" fill="#263238"/>
<path d="M106.1 132.05C106.056 132.07 106.008 132.08 105.96 132.08C105.912 132.08 105.864 132.07 105.82 132.05C105.775 132.03 105.734 132 105.701 131.964C105.667 131.927 105.641 131.885 105.624 131.838C105.607 131.791 105.6 131.742 105.603 131.692C105.606 131.643 105.618 131.594 105.64 131.55C105.877 130.999 106.243 130.513 106.708 130.133C107.173 129.754 107.722 129.492 108.31 129.37C108.406 129.363 108.501 129.392 108.576 129.452C108.651 129.513 108.7 129.599 108.714 129.694C108.728 129.789 108.705 129.886 108.651 129.965C108.596 130.044 108.514 130.099 108.42 130.12C107.956 130.224 107.524 130.438 107.159 130.742C106.794 131.046 106.506 131.433 106.32 131.87C106.297 131.913 106.266 131.952 106.229 131.983C106.191 132.014 106.147 132.036 106.1 132.05Z" fill="#263238"/>
<path d="M141.65 171.66C141.8 173.11 141.88 174.38 141.92 175.73C141.96 177.08 141.99 178.38 141.98 179.73C141.94 182.397 141.77 185.063 141.47 187.73C141.163 190.429 140.662 193.103 139.97 195.73C139.613 197.087 139.179 198.422 138.67 199.73C138.42 200.39 138.14 201.05 137.85 201.73C137.85 201.73 137.7 202.05 137.6 202.23C137.494 202.437 137.371 202.635 137.23 202.82C136.983 203.185 136.694 203.521 136.37 203.82C135.844 204.27 135.254 204.641 134.62 204.92C133.714 205.299 132.757 205.542 131.78 205.64C131 205.726 130.215 205.759 129.43 205.74C128.017 205.702 126.608 205.578 125.21 205.37C122.591 204.956 119.996 204.395 117.44 203.69C114.93 203 112.44 202.24 110.01 201.43C107.58 200.62 105.16 199.72 102.75 198.71L104 194.87C106.43 195.4 108.9 195.96 111.36 196.43C113.82 196.9 116.27 197.43 118.71 197.79C121.15 198.15 123.59 198.52 125.95 198.67C127.078 198.759 128.21 198.779 129.34 198.73C129.823 198.707 130.304 198.653 130.78 198.57C131.068 198.525 131.348 198.437 131.61 198.31C131.61 198.31 131.61 198.31 131.46 198.39C131.368 198.461 131.287 198.545 131.22 198.64L131.1 198.82C131.1 198.82 131.01 199.02 131.1 198.89C131.29 198.37 131.48 197.89 131.64 197.31C131.98 196.23 132.26 195.12 132.51 193.99C132.978 191.678 133.312 189.341 133.51 186.99C133.73 184.61 133.8 182.19 133.8 179.77C133.8 178.56 133.8 177.35 133.8 176.14C133.8 174.93 133.69 173.68 133.62 172.6L141.65 171.66Z" fill="#FF8B7B"/>
<path d="M139.46 162.06C142.91 164.31 141.74 183.92 141.74 183.92L133.62 185.55C133.62 185.55 133.55 175.55 132.68 169.06C132.09 164.65 137 160.45 139.46 162.06Z" fill="#FF8B7B"/>
<path d="M111.66 380.06C111.563 379.93 111.496 379.78 111.467 379.62C111.437 379.46 111.445 379.296 111.49 379.14C111.509 379.024 111.556 378.915 111.628 378.823C111.699 378.73 111.793 378.657 111.9 378.61C112.9 378.18 115.18 379.73 115.44 379.9C115.469 379.921 115.492 379.95 115.504 379.984C115.517 380.018 115.519 380.055 115.51 380.09C115.501 380.127 115.483 380.162 115.456 380.19C115.43 380.218 115.397 380.239 115.36 380.25C114.31 380.5 112.44 380.82 111.74 380.14L111.66 380.06ZM114.84 379.98C113.84 379.39 112.54 378.72 112.03 378.98C111.984 379.002 111.943 379.036 111.914 379.078C111.884 379.12 111.865 379.169 111.86 379.22C111.823 379.335 111.818 379.458 111.844 379.575C111.871 379.693 111.928 379.802 112.01 379.89C112.39 380.23 113.43 380.27 114.84 380V379.98Z" fill="#1D4E32"/>
<path d="M114.28 379.35C113.997 379.066 113.773 378.729 113.62 378.359C113.467 377.988 113.389 377.591 113.39 377.19C113.434 377.042 113.523 376.911 113.645 376.816C113.767 376.721 113.916 376.666 114.07 376.66C114.21 376.638 114.353 376.648 114.488 376.69C114.623 376.731 114.747 376.803 114.85 376.9C115.66 377.66 115.52 379.96 115.51 380.06C115.509 380.094 115.499 380.128 115.481 380.157C115.464 380.187 115.439 380.212 115.41 380.23C115.381 380.245 115.348 380.253 115.315 380.253C115.282 380.253 115.25 380.245 115.22 380.23C114.863 379.988 114.545 379.691 114.28 379.35ZM114.66 377.27C114.636 377.241 114.609 377.214 114.58 377.19C114.516 377.128 114.438 377.081 114.354 377.054C114.269 377.026 114.179 377.018 114.09 377.03C113.84 377.03 113.79 377.17 113.76 377.26C113.61 377.81 114.43 379.1 115.15 379.7C115.216 378.86 115.047 378.018 114.66 377.27Z" fill="#1D4E32"/>
<path d="M126.74 207.92L127.09 210.92C127.17 211.15 126.87 211.36 126.5 211.32L93.5001 208.4C93.2101 208.4 92.9901 208.21 93.0001 208.03L93.1901 205.11C93.1901 204.91 93.4801 204.76 93.7901 204.79L126.28 207.67C126.372 207.668 126.462 207.69 126.543 207.734C126.624 207.778 126.692 207.842 126.74 207.92Z" fill="white"/>
<path d="M121.78 211.2L122.65 211.27C122.83 211.27 122.97 211.21 122.98 211.1L123.18 207.31C123.18 207.2 123.05 207.09 122.88 207.08L122 207C121.83 207 121.68 207.06 121.67 207.17L121.47 210.97C121.47 211.08 121.61 211.18 121.78 211.2Z" fill="#1D4E32"/>
<path opacity="0.6" d="M121.78 211.2L122.65 211.27C122.83 211.27 122.97 211.21 122.98 211.1L123.18 207.31C123.18 207.2 123.05 207.09 122.88 207.08L122 207C121.83 207 121.68 207.06 121.67 207.17L121.47 210.97C121.47 211.08 121.61 211.18 121.78 211.2Z" fill="black"/>
<path d="M95.8701 208.9L96.7401 208.98C96.9201 208.98 97.0601 208.92 97.0701 208.81L97.2701 205.01C97.2701 204.9 97.1401 204.8 96.9701 204.78L96.1001 204.71C95.9201 204.71 95.7801 204.77 95.7701 204.88L95.5701 208.67C95.5601 208.78 95.7001 208.89 95.8701 208.9Z" fill="#1D4E32"/>
<path opacity="0.6" d="M95.8701 208.9L96.7401 208.98C96.9201 208.98 97.0601 208.92 97.0701 208.81L97.2701 205.01C97.2701 204.9 97.1401 204.8 96.9701 204.78L96.1001 204.71C95.9201 204.71 95.7801 204.77 95.7701 204.88L95.5701 208.67C95.5601 208.78 95.7001 208.89 95.8701 208.9Z" fill="black"/>
<path d="M108.83 210.05L109.7 210.13C109.87 210.13 110.02 210.06 110.02 209.95L110.23 206.16C110.23 206.05 110.1 205.95 109.92 205.93L109.05 205.85C108.88 205.85 108.73 205.92 108.73 206.03L108.52 209.82C108.52 209.93 108.66 210 108.83 210.05Z" fill="#1D4E32"/>
<path opacity="0.6" d="M108.83 210.05L109.7 210.13C109.87 210.13 110.02 210.06 110.02 209.95L110.23 206.16C110.23 206.05 110.1 205.95 109.92 205.93L109.05 205.85C108.88 205.85 108.73 205.92 108.73 206.03L108.52 209.82C108.52 209.93 108.66 210 108.83 210.05Z" fill="black"/>
<path d="M105.25 195.11L100.25 188.44L98.1699 196.44C98.1699 196.44 101.89 199.69 105.05 198.44L105.25 195.11Z" fill="#FF8B7B"/>
<path d="M93.85 186.97L92.46 193.72L99.21 197.17L100.28 188.44L93.85 186.97Z" fill="#FF8B7B"/>
<path d="M115.67 132.67L114.07 132.47C114.07 132.47 115 133.54 115.67 132.67Z" fill="#263238"/>
</g>
<defs>
<filter id="filter0_d_1797_136" x="193" y="522" width="214" height="53" filterUnits="userSpaceOnUse" color-interpolation-filters="sRGB">
<feFlood flood-opacity="0" result="BackgroundImageFix"/>
<feColorMatrix in="SourceAlpha" type="matrix" values="0 0 0 0 0 0 0 0 0 0 0 0 0 0 0 0 0 0 127 0" result="hardAlpha"/>
<feOffset dy="4"/>
<feGaussianBlur stdDeviation="2"/>
<feComposite in2="hardAlpha" operator="out"/>
<feColorMatrix type="matrix" values="0 0 0 0 0 0 0 0 0 0 0 0 0 0 0 0 0 0 0.25 0"/>
<feBlend mode="normal" in2="BackgroundImageFix" result="effect1_dropShadow_1797_136"/>
<feBlend mode="normal" in="SourceGraphic" in2="effect1_dropShadow_1797_136" result="shape"/>
</filter>
<filter id="filter1_d_1797_136" x="194" y="610" width="214" height="53" filterUnits="userSpaceOnUse" color-interpolation-filters="sRGB">
<feFlood flood-opacity="0" result="BackgroundImageFix"/>
<feColorMatrix in="SourceAlpha" type="matrix" values="0 0 0 0 0 0 0 0 0 0 0 0 0 0 0 0 0 0 127 0" result="hardAlpha"/>
<feOffset dy="4"/>
<feGaussianBlur stdDeviation="2"/>
<feComposite in2="hardAlpha" operator="out"/>
<feColorMatrix type="matrix" values="0 0 0 0 0 0 0 0 0 0 0 0 0 0 0 0 0 0 0.25 0"/>
<feBlend mode="normal" in2="BackgroundImageFix" result="effect1_dropShadow_1797_136"/>
<feBlend mode="normal" in="SourceGraphic" in2="effect1_dropShadow_1797_136" result="shape"/>
</filter>
<clipPath id="clip0_1797_136">
<rect width="412" height="917" fill="white"/>
</clipPath>
</defs>
</svg>
