<svg xmlns="http://www.w3.org/2000/svg" width="430" height="430" fill="none" viewBox="0 0 430 430"><path fill="#109121" d="M397 315H33a3 3 0 0 0-3 3v44a3 3 0 0 0 3 3h364a3 3 0 0 0 3-3v-44a3 3 0 0 0-3-3"/><path fill="#109121" d="M30 318a3 3 0 0 1 3-3h37v22a3 3 0 0 0 3 3h327v22a3 3 0 0 1-3 3H33a3 3 0 0 1-3-3z" opacity=".5" style="mix-blend-mode:multiply"/><path fill="#109121" d="M135 252c0-23.196 18.804-42 42-42h18v18c0 23.196-18.804 42-42 42h-18zm0 0c0-23.196-18.804-42-42-42H75v18c0 23.196 18.804 42 42 42h18z"/><path fill="#109121" d="M195 210h-18c-23.196 0-42 18.804-42 42v18zM75 228v-18l60 60h-18c-23.196 0-42-18.804-42-42" opacity=".5" style="mix-blend-mode:multiply"/><path stroke="#109121" stroke-linecap="round" stroke-width="7" d="M135 320V160"/><path fill="#f49cc8" d="M135 105c0-22.091 17.909-40 40-40h12a3 3 0 0 1 3 3v42c0 30.376-24.624 55-55 55s-55-24.624-55-55V68a3 3 0 0 1 3-3h12c22.091 0 40 17.909 40 40"/><path fill="#f49cc8" d="M158.135 159.912A54.8 54.8 0 0 1 135 165c-30.376 0-55-24.624-55-55V68a3 3 0 0 1 3-3h12q2.541.001 5 .31V105c0 30.376 24.624 55 55 55q1.578 0 3.135-.088" opacity=".5" style="mix-blend-mode:multiply"/><path fill="#109121" d="M295 252c0-23.196 18.804-42 42-42h18v18c0 23.196-18.804 42-42 42h-18zm0 0c0-23.196-18.804-42-42-42h-18v18c0 23.196 18.804 42 42 42h18z"/><path fill="#109121" d="M355 210h-18c-23.196 0-42 18.804-42 42v18zm-120 18v-18l60 60h-18c-23.196 0-42-18.804-42-42" opacity=".5" style="mix-blend-mode:multiply"/><path stroke="#109121" stroke-linecap="round" stroke-width="7" d="M295 320V160"/><path fill="#f4c89c" d="M295 105c0-22.091 17.909-40 40-40h12a3 3 0 0 1 3 3v42c0 30.376-24.624 55-55 55s-55-24.624-55-55V68a3 3 0 0 1 3-3h12c22.091 0 40 17.909 40 40"/><path fill="#f4c89c" d="M318.135 159.912A54.8 54.8 0 0 1 295 165c-30.376 0-55-24.624-55-55V68a3 3 0 0 1 3-3h12q2.541.001 5 .31V105c0 30.376 24.624 55 55 55q1.578 0 3.135-.088" opacity=".5" style="mix-blend-mode:multiply"/></svg>