<svg xmlns="http://www.w3.org/2000/svg" width="430" height="430" fill="none" viewBox="0 0 430 430"><path fill="#f28ba8" d="m358.662 173.858-180.681 14.093a3 3 0 0 0-2.758 3.224l14.093 180.681a3 3 0 0 0 3.224 2.758l180.681-14.093a3 3 0 0 0 2.758-3.224l-14.093-180.682a3 3 0 0 0-3.224-2.757"/><path stroke="#3A3347" stroke-linecap="round" stroke-linejoin="round" stroke-width="7" d="m228.3 245.58 89.61-6.99m-86.74 43.84 89.62-6.99m-86.9 41.8 44.81-3.5"/><path fill="#f28ba8" d="m210.56 373.19-18 1.41a2.996 2.996 0 0 1-3.22-2.75l-14.12-180.69a3 3 0 0 1 2.76-3.22L196 186.5z" opacity=".5" style="mix-blend-mode:multiply"/><path fill="#ffc738" d="M256 73.74 75.69 55.92a3 3 0 0 0-3.28 2.69L54.56 239.29a3 3 0 0 0 2.69 3.28l128.54 12.7L246 205.88l12.73-128.86a3.005 3.005 0 0 0-1.598-2.95 3 3 0 0 0-1.132-.33"/><path fill="#ffc738" d="m246 205.88-51.81-5.12a3 3 0 0 0-3.28 2.69l-5.12 51.82z" style="mix-blend-mode:multiply"/><path stroke="#3A3347" stroke-linecap="round" stroke-linejoin="round" stroke-width="7" d="m115.78 114.63 89.46 8.84m-93.09 27.94 89.45 8.84"/><path fill="#ffc738" d="M256.4 73.81 92.7 57.63 74.26 244.25l-17-1.68a3 3 0 0 1-2.03-1.08 3 3 0 0 1-.67-2.2L72.41 58.62a3 3 0 0 1 3.28-2.69L256 73.75q.203.012.4.06" opacity=".5" style="mix-blend-mode:multiply"/></svg>