<svg xmlns="http://www.w3.org/2000/svg" width="430" height="430" fill="none" viewBox="0 0 430 430"><path fill="#fae6d1" d="M383.63 214.52a168.627 168.627 0 0 1-201.534 165.378A168.63 168.63 0 0 1 49.61 247.404 168.628 168.628 0 0 1 279.534 58.717 168.63 168.63 0 0 1 383.63 214.52"/><path stroke="#242424" stroke-linecap="round" stroke-linejoin="round" stroke-width="7" d="M383.63 214.52a168.627 168.627 0 0 1-201.534 165.378A168.63 168.63 0 0 1 49.61 247.404 168.628 168.628 0 0 1 279.534 58.717 168.63 168.63 0 0 1 383.63 214.52"/><path fill="#66d7ee" d="m92.78 330.71.15-4.49a77.55 77.55 0 0 1 77.54-77.54h88.67a77.547 77.547 0 0 1 77.54 77.54l-.16 5.22c-62.03 66.22-174.97 71.31-243.74-.73"/><path fill="#ffc738" d="M257.81 125.61a55.9 55.9 0 0 1 13.12 36.08 56.11 56.11 0 1 1-13.12-36.08"/><path fill="#ffc738" d="M226.23 204.39a56.14 56.14 0 0 1-48-85.29 56.14 56.14 0 0 0-19.593 42.748 56.12 56.12 0 0 0 41.066 53.934 56.12 56.12 0 0 0 46.419-7.516 56.1 56.1 0 0 0 16.618-17.416 55.9 55.9 0 0 1-36.51 13.54" opacity=".5" style="mix-blend-mode:multiply"/><path fill="#66d7ee" d="M174.68 248.68h-4.21a77.547 77.547 0 0 0-77.54 77.54l-.15 4.49a170 170 0 0 0 19.63 17.62c4.85-37.67 19.9-84.91 62.27-99.65" opacity=".5" style="mix-blend-mode:multiply"/><path stroke="#242424" stroke-linecap="round" stroke-linejoin="round" stroke-width="7" d="m92.78 330.71.15-4.49a77.55 77.55 0 0 1 77.54-77.54h88.67a77.547 77.547 0 0 1 77.54 77.54l-.16 5.22c-62.03 66.22-174.97 71.31-243.74-.73m165.03-205.1a55.9 55.9 0 0 1 13.12 36.08v0a56.11 56.11 0 1 1-13.12-36.08"/></svg>